<svg width="580" height="507" viewBox="0 0 580 507" fill="none" xmlns="http://www.w3.org/2000/svg">
<g filter="url(#filter0_d_256_1038)">
<rect x="60.0933" y="39.9978" width="419" height="346" rx="8" transform="rotate(0.0158183 60.0933 39.9978)" fill="white"/>
<path d="M89.2395 71.6436C89.1828 71.0707 88.9391 70.6256 88.5083 70.3082C88.0776 69.9909 87.4928 69.8321 86.7542 69.8319C86.2523 69.8317 85.8285 69.9026 85.4828 70.0446C85.1372 70.1818 84.872 70.3735 84.6872 70.6197C84.5072 70.8658 84.4172 71.1451 84.4171 71.4576C84.4076 71.7181 84.462 71.9453 84.5803 72.1395C84.7033 72.3337 84.8714 72.5018 85.0844 72.6439C85.2974 72.7813 85.5436 72.9021 85.8229 73.0063C86.1023 73.1058 86.4005 73.1911 86.7178 73.2623L88.0245 73.5751C88.6589 73.7173 89.2412 73.9069 89.7715 74.1438C90.3017 74.3807 90.7609 74.672 91.1491 75.0177C91.5372 75.3635 91.8378 75.7708 92.0507 76.2396C92.2684 76.7084 92.3795 77.2458 92.3841 77.8519C92.3791 78.742 92.1516 79.5138 91.7016 80.167C91.2564 80.8156 90.6123 81.3197 89.7694 81.6793C88.9312 82.0342 87.9203 82.2115 86.7366 82.2111C85.5623 82.2108 84.5397 82.0306 83.6686 81.6705C82.8022 81.3104 82.1252 80.7776 81.6377 80.0719C81.155 79.3616 80.9019 78.4832 80.8785 77.4368L83.8544 77.4376C83.8874 77.9253 84.027 78.3325 84.2731 78.6593C84.5239 78.9814 84.8577 79.2253 85.2743 79.3911C85.6957 79.5522 86.1715 79.6328 86.7018 79.633C87.2226 79.6331 87.6748 79.5575 88.0584 79.4061C88.4467 79.2547 88.7474 79.0441 88.9605 78.7742C89.1737 78.5044 89.2803 78.1943 89.2804 77.8439C89.2805 77.5172 89.1835 77.2426 88.9894 77.02C88.8001 76.7974 88.5208 76.6079 88.1515 76.4516C87.787 76.2952 87.3396 76.1531 86.8093 76.0251L85.2256 75.6269C83.9994 75.3283 83.0312 74.8616 82.3212 74.227C81.6111 73.5923 81.2586 72.7376 81.2636 71.6627C81.2592 70.7821 81.4937 70.0127 81.9674 69.3547C82.4458 68.6967 83.1017 68.1831 83.9352 67.814C84.7686 67.445 85.7156 67.2606 86.7762 67.2609C87.8558 67.2612 88.798 67.4461 89.6028 67.8156C90.4123 68.1852 91.0419 68.6991 91.4916 69.3573C91.9412 70.0156 92.173 70.778 92.1869 71.6445L89.2395 71.6436ZM97.0054 82.214C96.3094 82.2138 95.6892 82.0929 95.1447 81.8512C94.6003 81.6049 94.1695 81.2425 93.8524 80.7642C93.54 80.2812 93.384 79.6798 93.3841 78.9601C93.3843 78.3541 93.4957 77.8451 93.7184 77.4332C93.941 77.0214 94.2442 76.69 94.6277 76.4392C95.0113 76.1883 95.447 75.999 95.9347 75.8713C96.4272 75.7436 96.9433 75.6538 97.4831 75.6019C98.1176 75.5358 98.629 75.4744 99.0172 75.4176C99.4055 75.3562 99.6873 75.2663 99.8625 75.148C100.038 75.0297 100.125 74.8545 100.125 74.6225L100.125 74.5799C100.126 74.1301 99.9836 73.782 99.6996 73.5357C99.4203 73.2894 99.0226 73.1662 98.5065 73.1661C97.962 73.1659 97.5287 73.2866 97.2067 73.5279C96.8846 73.7646 96.6715 74.0628 96.5672 74.4226L93.769 74.1946C93.9112 73.5318 94.1907 72.9589 94.6075 72.4761C95.0243 71.9885 95.5618 71.6146 96.2201 71.3544C96.883 71.0894 97.6501 70.957 98.5213 70.9573C99.1274 70.9574 99.7074 71.0286 100.261 71.1708C100.82 71.313 101.315 71.5333 101.745 71.8317C102.181 72.1302 102.524 72.5138 102.775 72.9826C103.026 73.4467 103.151 74.0031 103.151 74.6517L103.149 82.0097L100.28 82.0089L100.28 80.4961L100.195 80.4961C100.02 80.837 99.7851 81.1376 99.4914 81.3979C99.1978 81.6535 98.845 81.8546 98.433 82.0013C98.0211 82.1432 97.5452 82.2141 97.0054 82.214ZM97.8725 80.1261C98.3175 80.1263 98.7106 80.0388 99.0515 79.8637C99.3925 79.6838 99.6601 79.4424 99.8543 79.1395C100.048 78.8365 100.146 78.4932 100.146 78.1097L100.146 76.952C100.051 77.0136 99.9211 77.0704 99.7554 77.1224C99.5944 77.1697 99.4121 77.2146 99.2085 77.2572C99.0049 77.295 98.8013 77.3305 98.5977 77.3636C98.3941 77.3919 98.2094 77.4179 98.0437 77.4415C97.6885 77.4935 97.3784 77.5763 97.1132 77.6898C96.848 77.8034 96.642 77.9572 96.4952 78.1513C96.3483 78.3407 96.2749 78.5774 96.2748 78.8615C96.2747 79.2734 96.4237 79.5883 96.722 79.8062C97.025 80.0194 97.4084 80.126 97.8725 80.1261ZM108.026 67.4656L108.022 82.011L104.996 82.0102L105 67.4647L108.026 67.4656ZM114.917 82.226C113.795 82.2257 112.829 81.9982 112.019 81.5434C111.215 81.0839 110.595 80.435 110.159 79.5969C109.724 78.7539 109.506 77.7572 109.507 76.6066C109.507 75.4845 109.725 74.4997 110.161 73.6523C110.597 72.8048 111.21 72.1445 112.001 71.6712C112.796 71.198 113.729 70.9615 114.799 70.9618C115.519 70.962 116.189 71.0782 116.809 71.3103C117.434 71.5378 117.979 71.8812 118.442 72.3406C118.911 72.8 119.275 73.3778 119.536 74.0739C119.796 74.7652 119.926 75.5749 119.926 76.503L119.925 77.3339L110.714 77.3314L110.714 75.4564L117.078 75.4581C117.078 75.0225 116.983 74.6366 116.794 74.3004C116.605 73.9642 116.342 73.7013 116.006 73.5118C115.675 73.3176 115.289 73.2204 114.848 73.2203C114.389 73.2202 113.982 73.3266 113.627 73.5396C113.276 73.7478 113.002 74.0295 112.803 74.3845C112.604 74.7348 112.502 75.1254 112.497 75.5563L112.496 77.339C112.496 77.8788 112.596 78.3452 112.794 78.7382C112.998 79.1313 113.284 79.4344 113.653 79.6475C114.023 79.8607 114.461 79.9674 114.967 79.9675C115.303 79.9676 115.611 79.9203 115.891 79.8257C116.17 79.7311 116.409 79.5891 116.608 79.3998C116.807 79.2104 116.959 78.9785 117.063 78.7039L119.861 78.8893C119.719 79.5616 119.428 80.1487 118.987 80.6504C118.551 81.1475 117.988 81.5356 117.296 81.8147C116.61 82.0892 115.817 82.2263 114.917 82.226ZM130.477 74.2189L127.707 74.3886C127.66 74.1519 127.558 73.9388 127.402 73.7493C127.246 73.5552 127.04 73.4012 126.785 73.2875C126.534 73.1691 126.233 73.1098 125.883 73.1097C125.414 73.1096 125.018 73.2089 124.696 73.4077C124.374 73.6017 124.213 73.8621 124.213 74.1888C124.213 74.4492 124.317 74.6694 124.526 74.8494C124.734 75.0294 125.091 75.1739 125.598 75.2829L127.572 75.6812C128.633 75.8993 129.423 76.2499 129.944 76.733C130.465 77.2161 130.725 77.8506 130.725 78.6366C130.725 79.3516 130.514 79.9789 130.092 80.5186C129.675 81.0582 129.102 81.4795 128.373 81.7823C127.649 82.0804 126.813 82.2293 125.866 82.229C124.422 82.2286 123.271 81.9277 122.414 81.3261C121.562 80.7198 121.063 79.8958 120.916 78.8541L123.892 78.6987C123.982 79.139 124.2 79.4753 124.546 79.7074C124.891 79.9347 125.334 80.0485 125.874 80.0486C126.404 80.0488 126.83 79.9471 127.152 79.7436C127.479 79.5353 127.645 79.2679 127.649 78.9412C127.645 78.6666 127.529 78.4416 127.302 78.2664C127.074 78.0864 126.724 77.949 126.251 77.8541L124.361 77.4772C123.296 77.2638 122.503 76.8943 121.983 76.3686C121.467 75.8429 121.209 75.1728 121.209 74.3584C121.209 73.6577 121.399 73.054 121.778 72.5475C122.161 72.041 122.699 71.6505 123.39 71.3761C124.086 71.1016 124.901 70.9646 125.833 70.9648C127.211 70.9652 128.295 71.2567 129.086 71.8393C129.881 72.4219 130.345 73.2151 130.477 74.2189ZM136.315 82.0188L136.319 67.4734L142.057 67.475C143.156 67.4753 144.093 67.672 144.87 68.0652C145.651 68.4537 146.245 69.0055 146.652 69.7206C147.064 70.4309 147.269 71.2667 147.269 72.2278C147.269 73.1937 147.06 74.0247 146.643 74.7206C146.227 75.4117 145.623 75.9419 144.832 76.311C144.046 76.6801 143.094 76.8645 141.977 76.8642L138.134 76.8631L138.135 74.3915L141.48 74.3924C142.067 74.3926 142.555 74.3122 142.943 74.1514C143.332 73.9905 143.621 73.7491 143.81 73.4272C144.004 73.1053 144.101 72.7052 144.102 72.227C144.102 71.744 144.005 71.3368 143.811 71.0053C143.621 70.6738 143.33 70.4228 142.937 70.2522C142.549 70.0769 142.059 69.9892 141.467 69.989L139.393 69.9884L139.39 82.0197L136.315 82.0188ZM144.172 75.4017L147.785 82.022L144.39 82.0211L140.855 75.4008L144.172 75.4017ZM153.679 82.2367C152.557 82.2364 151.591 82.0089 150.781 81.5541C149.976 81.0946 149.356 80.4457 148.921 79.6076C148.486 78.7646 148.268 77.7679 148.268 76.6173C148.269 75.4952 148.487 74.5104 148.923 73.663C149.358 72.8155 149.972 72.1552 150.763 71.6819C151.558 71.2087 152.491 70.9722 153.561 70.9725C154.281 70.9727 154.951 71.0889 155.571 71.321C156.196 71.5485 156.74 71.8919 157.204 72.3513C157.673 72.8107 158.037 73.3885 158.297 74.0846C158.558 74.7759 158.688 75.5856 158.687 76.5137L158.687 77.3446L149.476 77.3421L149.476 75.4671L155.84 75.4688C155.84 75.0332 155.745 74.6473 155.556 74.3111C155.367 73.9749 155.104 73.712 154.768 73.5225C154.436 73.3283 154.051 73.2311 153.61 73.231C153.151 73.2309 152.744 73.3373 152.388 73.5503C152.038 73.7585 151.763 74.0402 151.564 74.3952C151.365 74.7455 151.264 75.1361 151.259 75.567L151.258 77.3497C151.258 77.8895 151.357 78.3559 151.556 78.7489C151.76 79.142 152.046 79.4451 152.415 79.6582C152.784 79.8714 153.222 79.9781 153.729 79.9782C154.065 79.9783 154.373 79.931 154.652 79.8364C154.932 79.7418 155.171 79.5998 155.37 79.4105C155.569 79.2211 155.72 78.9892 155.825 78.7146L158.623 78.9C158.481 79.5723 158.189 80.1594 157.749 80.6611C157.313 81.1582 156.749 81.5463 156.058 81.8254C155.371 82.0999 154.578 82.237 153.679 82.2367ZM160.159 86.1163L160.163 71.1163L163.146 71.1172L163.146 72.9496L163.281 72.9496C163.413 72.6561 163.605 72.3578 163.856 72.0549C164.112 71.7472 164.444 71.4916 164.851 71.2881C165.263 71.0799 165.774 70.9758 166.385 70.976C167.18 70.9762 167.914 71.1848 168.586 71.6016C169.259 72.0137 169.796 72.6365 170.198 73.47C170.6 74.2987 170.801 75.338 170.801 76.588C170.801 77.8049 170.604 78.8323 170.211 79.6703C169.822 80.5035 169.292 81.1354 168.619 81.5661C167.951 81.9921 167.203 82.2049 166.375 82.2047C165.788 82.2045 165.288 82.1073 164.876 81.9131C164.469 81.7189 164.135 81.4749 163.875 81.1813C163.615 80.8829 163.416 80.5822 163.279 80.2791L163.186 80.2791L163.185 86.1172L160.159 86.1163ZM163.123 76.5717C163.123 77.2204 163.213 77.7862 163.393 78.2692C163.573 78.7522 163.833 79.1287 164.174 79.3987C164.515 79.6639 164.929 79.7966 165.417 79.7968C165.909 79.7969 166.326 79.6621 166.667 79.3923C167.008 79.1178 167.266 78.739 167.441 78.2561C167.621 77.7685 167.711 77.2074 167.712 76.573C167.712 75.9432 167.624 75.3892 167.449 74.911C167.274 74.4327 167.016 74.0586 166.675 73.7886C166.335 73.5186 165.916 73.3836 165.418 73.3834C164.926 73.3833 164.509 73.5134 164.168 73.7737C163.832 74.034 163.574 74.4033 163.394 74.8814C163.214 75.3596 163.124 75.923 163.123 76.5717ZM177.245 82.2432C176.142 82.2429 175.188 82.0083 174.383 81.5393C173.583 81.0656 172.966 80.4073 172.53 79.5644C172.095 78.7167 171.877 77.7342 171.878 76.6167C171.878 75.4898 172.096 74.5051 172.532 73.6624C172.968 72.815 173.586 72.157 174.386 71.6885C175.191 71.2152 176.145 70.9787 177.249 70.979C178.352 70.9793 179.303 71.2163 180.103 71.69C180.908 72.159 181.528 72.8173 181.964 73.665C182.399 74.5079 182.617 75.4928 182.616 76.6197C182.616 77.7371 182.398 78.7195 181.962 79.567C181.526 80.4096 180.906 81.0676 180.101 81.5409C179.3 82.0094 178.349 82.2435 177.245 82.2432ZM177.26 79.8995C177.762 79.8996 178.181 79.7577 178.518 79.4737C178.854 79.185 179.107 78.792 179.278 78.2949C179.453 77.7978 179.541 77.232 179.541 76.5975C179.541 75.9631 179.454 75.3972 179.279 74.9C179.108 74.4028 178.855 74.0098 178.519 73.7208C178.183 73.4319 177.764 73.2874 177.262 73.2873C176.756 73.2871 176.329 73.4314 175.984 73.7201C175.643 74.0089 175.384 74.4018 175.209 74.8989C175.039 75.396 174.953 75.9618 174.953 76.5963C174.953 77.2307 175.038 77.7966 175.208 78.2938C175.383 78.791 175.641 79.1841 175.982 79.473C176.328 79.7572 176.754 79.8993 177.26 79.8995ZM184.082 82.032L184.085 71.1229L187.018 71.1238L187.018 73.0272L187.132 73.0272C187.331 72.3502 187.665 71.8389 188.133 71.4934C188.602 71.1431 189.142 70.9681 189.753 70.9683C189.904 70.9683 190.068 70.9778 190.243 70.9968C190.418 71.0158 190.572 71.0419 190.705 71.0751L190.704 73.7597C190.562 73.7171 190.365 73.6791 190.114 73.6459C189.863 73.6127 189.634 73.5961 189.425 73.596C188.98 73.5959 188.583 73.6928 188.232 73.8869C187.886 74.0762 187.612 74.3413 187.408 74.6821C187.209 75.023 187.11 75.4159 187.109 75.861L187.108 82.0329L184.082 82.032ZM198.118 71.1268L198.118 73.3995L191.548 73.3977L191.549 71.125L198.118 71.1268ZM193.041 68.5118L196.066 68.5126L196.064 78.6831C196.063 78.9624 196.106 79.1802 196.191 79.3365C196.276 79.4881 196.395 79.5946 196.546 79.6562C196.702 79.7178 196.882 79.7486 197.086 79.7487C197.228 79.7487 197.37 79.7369 197.512 79.7133C197.654 79.6849 197.763 79.6637 197.839 79.6495L198.314 81.901C198.163 81.9483 197.949 82.0027 197.675 82.0642C197.4 82.1304 197.066 82.1706 196.673 82.1847C195.944 82.2129 195.305 82.1156 194.756 81.8929C194.211 81.6703 193.788 81.3245 193.485 80.8557C193.182 80.3868 193.033 79.7949 193.038 79.08L193.041 68.5118Z" fill="#1D1E25"/>
<g clip-path="url(#clip0_256_1038)">
<mask id="mask0_256_1038" style="mask-type:luminance" maskUnits="userSpaceOnUse" x="85" y="114" width="369" height="261">
<rect x="85.9629" y="114.005" width="367.22" height="260" transform="rotate(0.0158183 85.9629 114.005)" fill="white"/>
</mask>
<g mask="url(#mask0_256_1038)">
<g clip-path="url(#clip1_256_1038)">
<path d="M422.765 355.734C422.764 356.655 422.598 357.45 422.265 358.121C421.933 358.791 421.477 359.308 420.897 359.671C420.317 360.035 419.655 360.216 418.911 360.216C418.167 360.216 417.505 360.034 416.925 359.67C416.346 359.306 415.89 358.789 415.558 358.119C415.226 357.448 415.06 356.653 415.06 355.732C415.06 354.812 415.227 354.016 415.559 353.346C415.892 352.676 416.348 352.159 416.928 351.795C417.507 351.432 418.169 351.25 418.914 351.25C419.658 351.25 420.32 351.432 420.899 351.796C421.479 352.16 421.934 352.677 422.267 353.348C422.599 354.018 422.765 354.814 422.765 355.734ZM421.742 355.734C421.742 354.978 421.616 354.341 421.363 353.821C421.113 353.301 420.774 352.907 420.345 352.64C419.919 352.373 419.442 352.239 418.913 352.239C418.385 352.239 417.906 352.372 417.477 352.639C417.051 352.906 416.711 353.299 416.458 353.819C416.208 354.339 416.083 354.977 416.083 355.732C416.083 356.488 416.207 357.126 416.457 357.646C416.71 358.166 417.049 358.559 417.475 358.827C417.904 359.094 418.383 359.227 418.911 359.228C419.44 359.228 419.917 359.094 420.343 358.827C420.772 358.56 421.112 358.167 421.362 357.647C421.615 357.127 421.742 356.49 421.742 355.734ZM427.063 360.235C426.449 360.235 425.921 360.09 425.478 359.8C425.035 359.51 424.694 359.111 424.456 358.603C424.217 358.094 424.098 357.513 424.098 356.86C424.098 356.195 424.221 355.608 424.465 355.1C424.712 354.589 425.056 354.189 425.497 353.903C425.94 353.613 426.457 353.468 427.048 353.468C427.508 353.469 427.923 353.554 428.292 353.724C428.661 353.895 428.964 354.134 429.2 354.441C429.435 354.748 429.582 355.106 429.638 355.515L428.633 355.514C428.556 355.216 428.386 354.952 428.121 354.722C427.86 354.489 427.508 354.372 427.065 354.372C426.673 354.372 426.329 354.474 426.033 354.678C425.741 354.88 425.512 355.165 425.347 355.535C425.185 355.901 425.104 356.332 425.104 356.826C425.104 357.332 425.183 357.772 425.342 358.147C425.504 358.522 425.731 358.813 426.024 359.021C426.319 359.228 426.666 359.332 427.063 359.332C427.325 359.332 427.562 359.287 427.775 359.196C427.988 359.105 428.169 358.974 428.316 358.804C428.464 358.634 428.569 358.429 428.632 358.19L429.638 358.191C429.581 358.577 429.44 358.925 429.215 359.235C428.994 359.541 428.7 359.786 428.333 359.967C427.969 360.146 427.546 360.236 427.063 360.235ZM433.956 353.556L433.955 354.408L430.563 354.407L430.564 353.555L433.956 353.556ZM431.553 351.987L432.558 351.987L432.557 358.226C432.556 358.51 432.598 358.723 432.68 358.865C432.765 359.004 432.873 359.098 433.004 359.146C433.137 359.192 433.278 359.214 433.426 359.215C433.536 359.215 433.627 359.209 433.698 359.198C433.769 359.183 433.826 359.172 433.869 359.164L434.073 360.067C434.005 360.093 433.91 360.118 433.788 360.144C433.665 360.172 433.511 360.186 433.323 360.186C433.039 360.186 432.761 360.125 432.488 360.003C432.218 359.88 431.994 359.694 431.815 359.444C431.639 359.194 431.551 358.879 431.551 358.498L431.553 351.987Z" fill="#808D9E"/>
<path fill-rule="evenodd" clip-rule="evenodd" d="M423.84 343.098L423.89 160.098L425.11 160.099L425.06 343.099L423.84 343.098Z" fill="#E9ECF2"/>
</g>
<g clip-path="url(#clip2_256_1038)">
<path d="M366.842 353.537C366.791 353.105 366.583 352.77 366.22 352.531C365.856 352.292 365.41 352.173 364.882 352.173C364.495 352.173 364.157 352.235 363.867 352.36C363.581 352.485 363.356 352.657 363.194 352.876C363.035 353.094 362.955 353.343 362.955 353.621C362.955 353.854 363.01 354.054 363.121 354.222C363.235 354.387 363.38 354.525 363.556 354.636C363.732 354.744 363.917 354.833 364.11 354.904C364.303 354.972 364.48 355.028 364.642 355.071L365.529 355.309C365.756 355.369 366.009 355.452 366.287 355.557C366.568 355.662 366.837 355.806 367.092 355.987C367.351 356.166 367.564 356.397 367.731 356.678C367.899 356.959 367.983 357.304 367.982 357.713C367.982 358.185 367.859 358.611 367.611 358.992C367.367 359.372 367.009 359.675 366.537 359.899C366.068 360.123 365.499 360.236 364.828 360.235C364.203 360.235 363.662 360.134 363.205 359.932C362.75 359.731 362.392 359.449 362.131 359.088C361.873 358.727 361.727 358.308 361.693 357.831L362.784 357.831C362.812 358.161 362.923 358.434 363.116 358.65C363.312 358.863 363.559 359.022 363.857 359.127C364.158 359.229 364.482 359.281 364.829 359.281C365.232 359.281 365.594 359.216 365.915 359.085C366.236 358.952 366.491 358.767 366.678 358.531C366.866 358.293 366.96 358.014 366.96 357.696C366.96 357.406 366.879 357.171 366.717 356.989C366.555 356.807 366.342 356.659 366.078 356.545C365.814 356.432 365.528 356.332 365.222 356.247L364.148 355.94C363.466 355.744 362.926 355.464 362.529 355.1C362.131 354.736 361.932 354.26 361.932 353.672C361.933 353.183 362.065 352.757 362.329 352.394C362.596 352.027 362.954 351.743 363.403 351.542C363.855 351.337 364.359 351.235 364.916 351.235C365.479 351.236 365.979 351.337 366.416 351.538C366.853 351.737 367.2 352.01 367.456 352.357C367.714 352.703 367.85 353.097 367.864 353.537L366.842 353.537ZM372.327 360.22C371.697 360.22 371.153 360.081 370.695 359.802C370.241 359.521 369.89 359.129 369.643 358.626C369.399 358.12 369.277 357.532 369.277 356.862C369.277 356.191 369.4 355.6 369.644 355.089C369.891 354.575 370.235 354.174 370.676 353.888C371.119 353.598 371.636 353.453 372.227 353.453C372.568 353.453 372.904 353.51 373.237 353.624C373.569 353.738 373.872 353.923 374.144 354.178C374.417 354.431 374.634 354.766 374.796 355.184C374.958 355.602 375.039 356.116 375.038 356.727L375.038 357.153L369.993 357.152L369.993 356.282L374.016 356.283C374.016 355.914 373.942 355.584 373.795 355.295C373.65 355.005 373.442 354.776 373.173 354.608C372.906 354.441 372.59 354.357 372.227 354.357C371.826 354.357 371.479 354.456 371.187 354.655C370.897 354.851 370.674 355.106 370.518 355.422C370.361 355.737 370.283 356.075 370.283 356.436L370.283 357.015C370.283 357.51 370.368 357.929 370.538 358.272C370.711 358.613 370.951 358.873 371.258 359.052C371.565 359.229 371.921 359.317 372.328 359.317C372.592 359.317 372.83 359.28 373.043 359.206C373.259 359.13 373.446 359.016 373.602 358.866C373.758 358.712 373.879 358.522 373.964 358.295L374.936 358.568C374.833 358.897 374.661 359.187 374.42 359.437C374.178 359.684 373.88 359.877 373.525 360.016C373.17 360.152 372.77 360.221 372.327 360.22ZM376.567 362.54L376.569 353.54L377.541 353.54L377.541 354.58L377.66 354.58C377.734 354.466 377.836 354.321 377.967 354.145C378.1 353.966 378.291 353.807 378.538 353.668C378.788 353.526 379.126 353.455 379.552 353.455C380.103 353.455 380.589 353.593 381.009 353.869C381.43 354.145 381.758 354.535 381.994 355.041C382.229 355.547 382.347 356.144 382.347 356.831C382.347 357.524 382.228 358.125 381.993 358.634C381.757 359.139 381.43 359.531 381.012 359.809C380.594 360.085 380.113 360.223 379.567 360.222C379.147 360.222 378.81 360.153 378.557 360.013C378.305 359.871 378.11 359.711 377.974 359.532C377.837 359.35 377.732 359.199 377.659 359.08L377.573 359.08L377.572 362.54L376.567 362.54ZM377.557 356.813C377.557 357.307 377.629 357.743 377.774 358.121C377.919 358.496 378.13 358.79 378.409 359.003C378.687 359.214 379.028 359.319 379.431 359.319C379.852 359.319 380.203 359.208 380.484 358.987C380.768 358.762 380.981 358.461 381.123 358.084C381.268 357.703 381.341 357.28 381.341 356.814C381.341 356.354 381.27 355.939 381.128 355.569C380.989 355.197 380.778 354.903 380.494 354.687C380.212 354.468 379.859 354.359 379.433 354.359C379.024 354.359 378.68 354.462 378.401 354.669C378.123 354.874 377.913 355.161 377.77 355.53C377.628 355.897 377.557 356.324 377.557 356.813Z" fill="#808D9E"/>
<path fill-rule="evenodd" clip-rule="evenodd" d="M371.38 343.084L371.43 160.084L372.65 160.084L372.6 343.084L371.38 343.084Z" fill="#E9ECF2"/>
</g>
<g clip-path="url(#clip3_256_1038)">
<path d="M307.912 360.066L306.804 360.066L310.011 351.34L311.102 351.34L314.304 360.068L313.197 360.068L310.591 352.72L310.522 352.72L307.912 360.066ZM308.322 356.657L312.788 356.658L312.788 357.596L308.322 357.595L308.322 356.657ZM319.653 357.393L319.654 353.524L320.66 353.524L320.658 360.07L319.652 360.069L319.653 358.962L319.585 358.961C319.431 359.294 319.192 359.576 318.868 359.809C318.545 360.039 318.135 360.154 317.641 360.154C317.232 360.154 316.868 360.064 316.55 359.885C316.232 359.703 315.982 359.431 315.8 359.067C315.619 358.7 315.528 358.239 315.528 357.682L315.529 353.523L316.535 353.523L316.534 357.614C316.534 358.091 316.667 358.472 316.934 358.756C317.204 359.04 317.548 359.183 317.965 359.183C318.215 359.183 318.47 359.119 318.728 358.991C318.989 358.863 319.208 358.667 319.384 358.403C319.564 358.139 319.653 357.802 319.653 357.393ZM325.141 362.662C324.656 362.662 324.238 362.599 323.889 362.474C323.539 362.352 323.248 362.19 323.015 361.988C322.785 361.789 322.602 361.576 322.466 361.349L323.267 360.786C323.358 360.906 323.473 361.042 323.612 361.196C323.751 361.352 323.942 361.487 324.183 361.601C324.427 361.717 324.747 361.775 325.142 361.776C325.67 361.776 326.106 361.648 326.45 361.392C326.794 361.137 326.966 360.736 326.966 360.191L326.966 358.861L326.881 358.861C326.807 358.981 326.702 359.128 326.566 359.304C326.432 359.478 326.239 359.632 325.986 359.769C325.736 359.902 325.398 359.969 324.972 359.969C324.443 359.969 323.969 359.843 323.549 359.593C323.131 359.343 322.8 358.979 322.556 358.502C322.315 358.025 322.194 357.445 322.194 356.763C322.194 356.093 322.312 355.509 322.548 355.012C322.784 354.512 323.113 354.126 323.533 353.853C323.954 353.578 324.439 353.44 324.991 353.44C325.417 353.44 325.755 353.511 326.005 353.654C326.258 353.793 326.451 353.952 326.584 354.131C326.72 354.307 326.826 354.452 326.899 354.566L327.002 354.566L327.002 353.526L327.974 353.526L327.972 360.259C327.972 360.822 327.844 361.279 327.588 361.631C327.335 361.986 326.994 362.246 326.565 362.411C326.139 362.578 325.664 362.662 325.141 362.662ZM325.108 359.065C325.512 359.065 325.853 358.973 326.131 358.789C326.41 358.604 326.621 358.338 326.766 357.992C326.911 357.645 326.984 357.231 326.984 356.748C326.984 356.276 326.913 355.86 326.771 355.499C326.629 355.138 326.419 354.855 326.141 354.651C325.862 354.446 325.519 354.344 325.11 354.344C324.684 354.344 324.328 354.451 324.044 354.667C323.763 354.883 323.551 355.173 323.409 355.536C323.27 355.9 323.2 356.303 323.2 356.747C323.2 357.201 323.271 357.603 323.413 357.953C323.557 358.299 323.77 358.572 324.052 358.771C324.336 358.967 324.688 359.065 325.108 359.065Z" fill="#808D9E"/>
<path fill-rule="evenodd" clip-rule="evenodd" d="M316.48 343.069L316.53 160.069L317.75 160.069L317.7 343.069L316.48 343.069Z" fill="#E9ECF2"/>
</g>
<g clip-path="url(#clip4_256_1038)">
<path d="M261.467 351.326L262.524 351.326L262.522 357.565C262.522 358.122 262.42 358.595 262.215 358.984C262.01 359.373 261.722 359.669 261.35 359.87C260.978 360.072 260.539 360.172 260.033 360.172C259.556 360.172 259.131 360.085 258.759 359.912C258.387 359.736 258.094 359.486 257.881 359.162C257.668 358.838 257.562 358.453 257.562 358.007L258.602 358.007C258.602 358.254 258.663 358.47 258.785 358.655C258.91 358.837 259.08 358.979 259.296 359.081C259.512 359.184 259.758 359.235 260.033 359.235C260.337 359.235 260.596 359.171 260.809 359.043C261.022 358.916 261.184 358.728 261.295 358.481C261.409 358.231 261.465 357.926 261.466 357.565L261.467 351.326ZM268.629 357.379L268.63 353.51L269.636 353.51L269.634 360.056L268.628 360.055L268.628 358.947L268.56 358.947C268.407 359.28 268.168 359.562 267.844 359.795C267.52 360.025 267.111 360.14 266.617 360.14C266.208 360.14 265.844 360.05 265.526 359.871C265.208 359.689 264.958 359.417 264.776 359.053C264.594 358.686 264.504 358.225 264.504 357.668L264.505 353.509L265.511 353.509L265.51 357.6C265.509 358.077 265.643 358.458 265.91 358.742C266.18 359.026 266.523 359.168 266.941 359.169C267.191 359.169 267.445 359.105 267.704 358.977C267.965 358.849 268.184 358.653 268.36 358.389C268.539 358.125 268.629 357.788 268.629 357.379ZM272.484 351.329L272.482 360.056L271.476 360.056L271.478 351.329L272.484 351.329Z" fill="#808D9E"/>
<path fill-rule="evenodd" clip-rule="evenodd" d="M264.02 343.054L264.07 160.054L266.51 160.055L266.46 343.055L264.02 343.054Z" fill="#E9ECF2"/>
<path opacity="0.1" fill-rule="evenodd" clip-rule="evenodd" d="M242.06 343.048L242.11 160.048L290.91 160.062L290.86 343.062L242.06 343.048Z" fill="url(#paint0_linear_256_1038)"/>
</g>
<g clip-path="url(#clip5_256_1038)">
<path d="M208.751 351.312L209.808 351.312L209.806 357.551C209.806 358.107 209.704 358.58 209.499 358.969C209.294 359.359 209.006 359.654 208.634 359.856C208.262 360.057 207.823 360.158 207.317 360.158C206.84 360.158 206.415 360.071 206.043 359.897C205.671 359.721 205.378 359.471 205.165 359.147C204.952 358.823 204.846 358.438 204.846 357.992L205.886 357.993C205.886 358.24 205.947 358.456 206.069 358.64C206.194 358.822 206.364 358.964 206.58 359.067C206.796 359.169 207.042 359.22 207.317 359.22C207.621 359.22 207.88 359.157 208.093 359.029C208.306 358.901 208.468 358.713 208.579 358.466C208.692 358.216 208.749 357.911 208.749 357.55L208.751 351.312ZM215.913 357.365L215.914 353.495L216.92 353.496L216.918 360.041L215.912 360.041L215.912 358.933L215.844 358.933C215.691 359.265 215.452 359.548 215.128 359.781C214.804 360.011 214.395 360.126 213.901 360.125C213.492 360.125 213.128 360.036 212.81 359.857C212.492 359.675 212.242 359.402 212.06 359.038C211.878 358.672 211.788 358.21 211.788 357.653L211.789 353.494L212.795 353.495L212.793 357.585C212.793 358.063 212.927 358.443 213.194 358.728C213.464 359.012 213.807 359.154 214.225 359.154C214.475 359.154 214.729 359.09 214.988 358.962C215.249 358.835 215.468 358.639 215.644 358.375C215.823 358.11 215.913 357.774 215.913 357.365ZM219.767 356.104L219.765 360.042L218.76 360.042L218.762 353.496L219.733 353.496L219.733 354.519L219.818 354.519C219.972 354.187 220.205 353.92 220.517 353.718C220.83 353.514 221.233 353.412 221.728 353.412C222.171 353.412 222.558 353.503 222.891 353.685C223.223 353.864 223.482 354.137 223.666 354.503C223.851 354.867 223.943 355.327 223.943 355.884L223.942 360.043L222.936 360.043L222.937 355.952C222.937 355.438 222.804 355.037 222.537 354.75C222.27 354.46 221.903 354.315 221.437 354.315C221.116 354.315 220.83 354.385 220.577 354.524C220.327 354.663 220.129 354.866 219.984 355.133C219.839 355.4 219.767 355.724 219.767 356.104Z" fill="#808D9E"/>
<path fill-rule="evenodd" clip-rule="evenodd" d="M216.44 343.041L216.49 160.041L217.71 160.041L217.66 343.041L216.44 343.041Z" fill="#E9ECF2"/>
</g>
<g clip-path="url(#clip6_256_1038)">
<path d="M148.212 351.295L149.474 351.295L152.438 358.54L152.54 358.54L155.508 351.297L156.769 351.297L156.767 360.025L155.778 360.024L155.78 353.394L155.695 353.394L152.966 360.023L152.011 360.023L149.286 353.392L149.2 353.392L149.199 360.022L148.21 360.022L148.212 351.295ZM160.676 360.179C160.261 360.179 159.884 360.101 159.546 359.944C159.208 359.785 158.94 359.556 158.741 359.258C158.542 358.957 158.443 358.593 158.443 358.167C158.443 357.792 158.517 357.488 158.665 357.255C158.813 357.019 159.01 356.835 159.257 356.701C159.505 356.568 159.777 356.469 160.076 356.403C160.377 356.335 160.679 356.281 160.983 356.242C161.381 356.191 161.704 356.152 161.951 356.127C162.201 356.098 162.383 356.052 162.496 355.986C162.613 355.921 162.671 355.807 162.671 355.645L162.671 355.611C162.671 355.191 162.556 354.864 162.326 354.631C162.099 354.398 161.754 354.282 161.291 354.281C160.811 354.281 160.434 354.386 160.161 354.596C159.889 354.807 159.697 355.031 159.586 355.27L158.632 354.928C158.802 354.531 159.029 354.221 159.314 354C159.601 353.775 159.913 353.619 160.251 353.531C160.592 353.44 160.927 353.395 161.257 353.395C161.467 353.395 161.709 353.421 161.981 353.472C162.257 353.52 162.523 353.621 162.778 353.775C163.037 353.928 163.251 354.16 163.421 354.47C163.592 354.779 163.677 355.194 163.677 355.714L163.676 360.026L162.67 360.026L162.67 359.14L162.619 359.14C162.551 359.282 162.437 359.434 162.278 359.596C162.119 359.758 161.907 359.895 161.643 360.009C161.379 360.122 161.056 360.179 160.676 360.179ZM160.829 359.276C161.227 359.276 161.562 359.198 161.835 359.042C162.111 358.885 162.318 358.684 162.457 358.437C162.599 358.189 162.67 357.93 162.671 357.657L162.671 356.736C162.628 356.787 162.534 356.834 162.39 356.877C162.247 356.917 162.083 356.952 161.895 356.983C161.711 357.012 161.53 357.037 161.354 357.06C161.181 357.08 161.04 357.097 160.932 357.111C160.671 357.145 160.426 357.2 160.199 357.277C159.975 357.351 159.793 357.463 159.654 357.613C159.517 357.761 159.449 357.963 159.449 358.218C159.449 358.568 159.578 358.832 159.836 359.011C160.098 359.187 160.429 359.276 160.829 359.276ZM165.924 362.482C165.753 362.482 165.601 362.467 165.468 362.439C165.334 362.413 165.242 362.388 165.191 362.362L165.447 361.476C165.691 361.538 165.907 361.561 166.095 361.544C166.282 361.527 166.448 361.443 166.593 361.293C166.741 361.145 166.876 360.905 166.998 360.573L167.186 360.061L164.767 353.481L165.858 353.482L167.664 358.698L167.732 358.698L169.54 353.483L170.631 353.483L167.85 360.982C167.725 361.32 167.57 361.6 167.386 361.821C167.201 362.046 166.986 362.212 166.742 362.32C166.501 362.428 166.228 362.482 165.924 362.482Z" fill="#808D9E"/>
<path fill-rule="evenodd" clip-rule="evenodd" d="M160.333 343.025L160.384 160.025L161.576 160.026L161.526 343.026L160.333 343.025Z" fill="#E9ECF2"/>
</g>
<g clip-path="url(#clip7_256_1038)">
<path d="M98.9473 339.489L96.1209 347.264L94.9666 347.263L98.2209 338.733L98.9651 338.733L98.9473 339.489ZM101.312 347.265L98.4844 339.489L98.467 338.733L99.2112 338.733L102.472 347.265L101.312 347.265ZM101.167 344.107L101.166 345.033L96.3735 345.031L96.3738 344.105L101.167 344.107ZM104.622 342.145L104.62 349.703L103.53 349.703L103.533 340.926L104.529 340.926L104.622 342.145ZM108.893 344.044L108.893 344.168C108.893 344.628 108.838 345.056 108.729 345.451C108.619 345.841 108.459 346.181 108.248 346.47C108.041 346.759 107.785 346.984 107.48 347.144C107.175 347.304 106.826 347.384 106.431 347.384C106.029 347.384 105.673 347.317 105.365 347.184C105.056 347.051 104.795 346.858 104.58 346.604C104.365 346.35 104.193 346.045 104.065 345.69C103.94 345.334 103.854 344.934 103.807 344.488L103.807 343.832C103.854 343.363 103.942 342.944 104.071 342.572C104.2 342.201 104.37 341.885 104.581 341.623C104.796 341.358 105.056 341.157 105.361 341.02C105.665 340.88 106.017 340.809 106.415 340.809C106.814 340.81 107.167 340.888 107.476 341.044C107.784 341.197 108.044 341.415 108.255 341.701C108.466 341.986 108.624 342.328 108.729 342.726C108.839 343.121 108.893 343.56 108.893 344.044ZM107.803 344.167L107.803 344.044C107.803 343.728 107.77 343.431 107.704 343.154C107.638 342.872 107.534 342.626 107.394 342.415C107.257 342.2 107.081 342.032 106.866 341.911C106.652 341.786 106.396 341.723 106.099 341.723C105.825 341.723 105.587 341.77 105.384 341.864C105.185 341.958 105.015 342.084 104.874 342.245C104.733 342.401 104.618 342.58 104.528 342.784C104.442 342.983 104.378 343.19 104.335 343.405L104.334 344.922C104.412 345.196 104.522 345.453 104.662 345.696C104.803 345.934 104.99 346.127 105.225 346.276C105.459 346.42 105.754 346.493 106.109 346.493C106.402 346.493 106.654 346.433 106.865 346.312C107.08 346.187 107.256 346.017 107.393 345.802C107.533 345.587 107.637 345.341 107.703 345.064C107.77 344.782 107.803 344.484 107.803 344.167ZM111.446 341.924L111.445 347.268L110.361 347.268L110.362 340.928L111.417 340.928L111.446 341.924ZM113.427 340.893L113.421 341.901C113.331 341.882 113.245 341.87 113.163 341.866C113.085 341.858 112.995 341.854 112.893 341.854C112.643 341.854 112.423 341.893 112.231 341.971C112.04 342.049 111.878 342.159 111.745 342.299C111.612 342.44 111.507 342.608 111.428 342.803C111.354 342.994 111.305 343.205 111.282 343.436L110.977 343.611C110.977 343.229 111.014 342.869 111.089 342.533C111.167 342.197 111.286 341.901 111.446 341.643C111.606 341.381 111.81 341.178 112.056 341.034C112.306 340.885 112.603 340.811 112.946 340.811C113.025 340.811 113.114 340.821 113.216 340.841C113.318 340.856 113.388 340.874 113.427 340.893Z" fill="#92929D"/>
<path fill-rule="evenodd" clip-rule="evenodd" d="M105.434 343.01L105.485 160.01L106.677 160.011L106.626 343.011L105.434 343.01Z" fill="#F1F1F5"/>
</g>
<g filter="url(#filter1_d_256_1038)">
<path d="M274.058 168.057C274.06 161.429 279.434 156.058 286.061 156.06L334.061 156.073C340.688 156.075 346.06 161.449 346.058 168.077L346.054 182.077C346.052 188.704 340.678 194.075 334.051 194.073L274.051 194.057L274.058 168.057Z" fill="white"/>
</g>
<path d="M308.579 180.206C307.84 180.205 307.183 180.081 306.61 179.832C306.04 179.583 305.593 179.244 305.268 178.813C304.947 178.378 304.788 177.886 304.791 177.336C304.788 176.908 304.881 176.516 305.07 176.158C305.259 175.8 305.514 175.502 305.836 175.263C306.161 175.021 306.522 174.867 306.92 174.801L306.92 174.731C306.396 174.615 305.972 174.348 305.647 173.931C305.326 173.51 305.167 173.024 305.17 172.474C305.167 171.95 305.313 171.483 305.608 171.072C305.903 170.661 306.308 170.338 306.822 170.103C307.335 169.864 307.922 169.745 308.582 169.745C309.235 169.746 309.816 169.865 310.327 170.104C310.84 170.339 311.244 170.663 311.539 171.074C311.838 171.485 311.987 171.952 311.986 172.476C311.986 173.026 311.822 173.511 311.494 173.932C311.169 174.35 310.75 174.616 310.236 174.732L310.236 174.802C310.633 174.868 310.991 175.023 311.309 175.265C311.631 175.503 311.886 175.802 312.075 176.16C312.267 176.518 312.363 176.91 312.363 177.338C312.363 177.888 312.2 178.38 311.875 178.814C311.55 179.245 311.103 179.585 310.533 179.833C309.966 180.082 309.315 180.206 308.579 180.206ZM308.579 178.784C308.96 178.784 309.292 178.719 309.573 178.59C309.855 178.458 310.074 178.272 310.23 178.033C310.386 177.795 310.465 177.52 310.469 177.208C310.466 176.883 310.381 176.597 310.215 176.348C310.053 176.096 309.829 175.899 309.544 175.756C309.263 175.614 308.941 175.542 308.58 175.542C308.215 175.542 307.891 175.613 307.606 175.756C307.32 175.898 307.095 176.095 306.929 176.347C306.767 176.596 306.687 176.882 306.69 177.207C306.687 177.519 306.763 177.794 306.919 178.033C307.075 178.268 307.293 178.452 307.575 178.585C307.86 178.717 308.195 178.784 308.579 178.784ZM308.58 174.145C308.892 174.145 309.167 174.082 309.406 173.957C309.648 173.831 309.838 173.655 309.978 173.43C310.117 173.204 310.188 172.944 310.192 172.649C310.188 172.358 310.119 172.102 309.983 171.884C309.847 171.661 309.658 171.491 309.416 171.371C309.174 171.249 308.896 171.187 308.581 171.187C308.26 171.187 307.976 171.248 307.731 171.371C307.489 171.49 307.3 171.661 307.164 171.883C307.031 172.101 306.967 172.357 306.97 172.648C306.967 172.943 307.033 173.204 307.169 173.429C307.308 173.651 307.498 173.827 307.74 173.956C307.985 174.082 308.266 174.145 308.58 174.145ZM313.997 180.068L313.997 178.736L317.533 175.271C317.871 174.93 318.153 174.627 318.378 174.362C318.604 174.097 318.773 173.84 318.885 173.591C318.998 173.343 319.055 173.078 319.055 172.796C319.055 172.474 318.982 172.199 318.836 171.971C318.69 171.738 318.49 171.559 318.235 171.433C317.98 171.307 317.69 171.244 317.365 171.244C317.03 171.244 316.737 171.314 316.485 171.453C316.233 171.589 316.037 171.782 315.898 172.034C315.762 172.286 315.694 172.586 315.694 172.934L313.939 172.934C313.939 172.287 314.087 171.726 314.382 171.248C314.677 170.771 315.083 170.402 315.6 170.14C316.121 169.878 316.717 169.748 317.39 169.748C318.073 169.748 318.673 169.876 319.19 170.131C319.707 170.386 320.108 170.736 320.392 171.18C320.681 171.625 320.825 172.132 320.825 172.702C320.824 173.083 320.751 173.458 320.606 173.825C320.46 174.193 320.203 174.601 319.835 175.048C319.47 175.496 318.958 176.037 318.298 176.673L316.542 178.458L316.542 178.527L320.977 178.529L320.977 180.07L313.997 180.068ZM326.455 180.265C325.637 180.265 324.934 180.058 324.348 179.643C323.764 179.225 323.315 178.624 323.001 177.838C322.689 177.049 322.534 176.1 322.534 174.989C322.538 173.879 322.695 172.934 323.007 172.156C323.322 171.374 323.772 170.777 324.355 170.366C324.942 169.955 325.643 169.75 326.458 169.75C327.274 169.751 327.974 169.956 328.561 170.367C329.148 170.779 329.596 171.375 329.908 172.158C330.222 172.94 330.38 173.884 330.379 174.991C330.379 176.105 330.221 177.056 329.906 177.845C329.594 178.63 329.145 179.23 328.558 179.644C327.975 180.059 327.274 180.265 326.455 180.265ZM326.456 178.709C327.092 178.709 327.594 178.396 327.962 177.77C328.334 177.14 328.52 176.214 328.52 174.991C328.52 174.182 328.436 173.503 328.267 172.953C328.098 172.402 327.86 171.988 327.551 171.709C327.243 171.428 326.879 171.287 326.458 171.287C325.825 171.286 325.324 171.601 324.956 172.231C324.588 172.857 324.402 173.777 324.399 174.99C324.395 175.802 324.476 176.485 324.642 177.038C324.81 177.592 325.049 178.009 325.357 178.291C325.665 178.57 326.031 178.709 326.456 178.709Z" fill="#1D1E25"/>
<rect x="285.057" y="170.202" width="10" height="10" rx="2" transform="rotate(0.0158183 285.057 170.202)" fill="#2280FF"/>
<path d="M77.0342 253.889C81.5325 255.737 92.1676 260.886 98.7214 266.703C106.914 273.975 133.422 281.944 149.333 264.64C165.245 247.336 172.477 241.107 184.045 241.111C195.613 241.114 203.326 238.693 216.346 220.696C229.365 202.699 233.612 194.003 249.612 194.05C265.08 194.096 272.906 204.788 276.6 210.674L285.273 224.177C288.806 229.832 298.307 239.411 312.222 240.434C326.136 241.457 336.835 236.285 347.934 227.655C358.27 219.619 376.377 211.047 391.797 227.668C404.133 240.964 410.43 245.673 412.036 246.366" stroke="#2280FF" stroke-width="3" stroke-linecap="round"/>
<path d="M53.0324 260.617C58.2426 261.963 70.5608 265.715 78.1521 269.953C87.6413 275.251 118.345 281.059 136.771 268.457C155.198 255.855 163.573 251.318 176.972 251.322C190.37 251.326 199.303 249.563 214.38 236.456C229.457 223.348 234.375 217.015 252.906 217.051C270.821 217.086 279.887 224.875 284.166 229.163L294.212 238.999C298.305 243.119 309.311 250.097 325.427 250.844C341.543 251.591 353.934 247.825 366.787 241.541C378.758 235.688 399.729 229.447 417.59 241.555C431.879 251.241 439.173 254.672 441.034 255.177" stroke="#FF5555" stroke-width="3" stroke-linecap="round"/>
</g>
<rect x="85.9512" y="156.005" width="59.78" height="203" transform="rotate(0.0158183 85.9512 156.005)" fill="white"/>
<g clip-path="url(#clip8_256_1038)">
<path d="M101.51 165.282L101.508 174.009L100.451 174.009L100.453 166.39L100.402 166.39L98.2708 167.804L98.2711 166.73L100.453 165.282L101.51 165.282ZM105.059 171.624L105.042 170.38L105.246 170.38L108.111 167.466L109.355 167.466L106.303 170.55L106.218 170.55L105.059 171.624ZM104.12 174.01L104.123 165.283L105.128 165.283L105.126 174.01L104.12 174.01ZM108.279 174.011L105.724 170.772L106.44 170.073L109.558 174.011L108.279 174.011Z" fill="#808D9E"/>
</g>
<g clip-path="url(#clip9_256_1038)">
<path d="M108.559 344.13C107.917 344.13 107.37 343.955 106.919 343.606C106.467 343.254 106.122 342.743 105.883 342.076C105.645 341.405 105.526 340.596 105.526 339.647C105.526 338.704 105.646 337.898 105.885 337.231C106.126 336.56 106.473 336.049 106.925 335.697C107.38 335.342 107.925 335.164 108.562 335.165C109.198 335.165 109.742 335.342 110.193 335.698C110.648 336.05 110.994 336.562 111.233 337.232C111.474 337.9 111.595 338.705 111.594 339.648C111.594 340.597 111.475 341.407 111.236 342.077C110.997 342.745 110.652 343.255 110.2 343.607C109.748 343.956 109.201 344.131 108.559 344.13ZM108.559 343.193C109.196 343.193 109.69 342.886 110.042 342.273C110.395 341.659 110.571 340.784 110.572 339.648C110.572 338.892 110.491 338.249 110.329 337.718C110.17 337.186 109.94 336.781 109.639 336.503C109.341 336.224 108.982 336.085 108.561 336.085C107.931 336.085 107.438 336.396 107.082 337.018C106.727 337.637 106.549 338.513 106.549 339.647C106.549 340.403 106.628 341.045 106.787 341.573C106.946 342.102 107.175 342.504 107.473 342.779C107.774 343.055 108.136 343.193 108.559 343.193Z" fill="#808D9E"/>
</g>
<g clip-path="url(#clip10_256_1038)">
<path d="M88.6422 310.006L88.6424 309.239L91.5239 306.086C91.8621 305.717 92.1406 305.396 92.3594 305.123C92.5782 304.848 92.7402 304.589 92.8454 304.348C92.9534 304.103 93.0075 303.848 93.0076 303.581C93.0077 303.274 92.9339 303.008 92.7862 302.784C92.6414 302.559 92.4426 302.386 92.1897 302.264C91.9369 302.142 91.6529 302.08 91.3375 302.08C91.0023 302.08 90.7097 302.15 90.4596 302.289C90.2124 302.425 90.0206 302.617 89.8842 302.864C89.7506 303.111 89.6838 303.401 89.6837 303.733L88.678 303.733C88.6781 303.222 88.7961 302.773 89.032 302.386C89.2679 302 89.5891 301.699 89.9954 301.483C90.4045 301.268 90.8633 301.16 91.3719 301.16C91.8832 301.16 92.3363 301.268 92.7312 301.484C93.126 301.7 93.4356 301.991 93.6599 302.358C93.8842 302.724 93.9963 303.132 93.9962 303.581C93.9961 303.902 93.9378 304.216 93.8212 304.523C93.7075 304.827 93.5085 305.166 93.2244 305.541C92.943 305.913 92.5523 306.368 92.0521 306.904L90.0913 309L90.0913 309.069L94.1481 309.07L94.1478 310.007L88.6422 310.006ZM98.8401 310.128C98.198 310.128 97.6512 309.953 97.1996 309.603C96.748 309.251 96.4029 308.741 96.1645 308.073C95.926 307.403 95.8069 306.593 95.8072 305.644C95.8075 304.701 95.927 303.895 96.1658 303.228C96.4075 302.558 96.7542 302.046 97.206 301.694C97.6607 301.339 98.2062 301.162 98.8425 301.162C99.4789 301.162 100.023 301.34 100.474 301.695C100.929 302.047 101.275 302.559 101.514 303.229C101.755 303.897 101.876 304.703 101.875 305.646C101.875 306.595 101.756 307.404 101.517 308.075C101.278 308.742 100.933 309.252 100.481 309.604C100.029 309.953 99.4821 310.128 98.8401 310.128ZM98.8403 309.19C99.4767 309.19 99.9711 308.884 100.324 308.27C100.676 307.657 100.852 306.782 100.853 305.645C100.853 304.89 100.772 304.246 100.61 303.715C100.451 303.184 100.221 302.779 99.9203 302.5C99.6221 302.222 99.2627 302.082 98.8423 302.082C98.2116 302.082 97.7186 302.393 97.3633 303.015C97.008 303.634 96.8302 304.511 96.8299 305.644C96.8297 306.4 96.9091 307.042 97.068 307.571C97.227 308.099 97.4556 308.501 97.7538 308.777C98.0548 309.052 98.417 309.19 98.8403 309.19ZM106.426 310.13C105.784 310.13 105.237 309.955 104.785 309.605C104.334 309.253 103.989 308.743 103.75 308.075C103.512 307.405 103.393 306.595 103.393 305.646C103.393 304.703 103.513 303.898 103.752 303.23C103.993 302.56 104.34 302.048 104.792 301.696C105.246 301.341 105.792 301.164 106.428 301.164C107.065 301.164 107.609 301.342 108.06 301.697C108.515 302.05 108.861 302.561 109.1 303.231C109.341 303.899 109.461 304.705 109.461 305.648C109.461 306.597 109.341 307.406 109.102 308.077C108.864 308.744 108.518 309.254 108.067 309.606C107.615 309.956 107.068 310.13 106.426 310.13ZM106.426 309.192C107.062 309.193 107.557 308.886 107.909 308.272C108.262 307.659 108.438 306.784 108.438 305.648C108.439 304.892 108.358 304.248 108.196 303.717C108.037 303.186 107.807 302.781 107.506 302.502C107.208 302.224 106.848 302.085 106.428 302.084C105.797 302.084 105.304 302.395 104.949 303.017C104.594 303.637 104.416 304.513 104.416 305.646C104.415 306.402 104.495 307.044 104.654 307.573C104.813 308.101 105.041 308.503 105.339 308.779C105.641 309.054 106.003 309.192 106.426 309.192Z" fill="#808D9E"/>
</g>
<g clip-path="url(#clip11_256_1038)">
<path d="M88.4474 274.216L88.4476 273.347L92.2845 267.279L92.9152 267.28L92.9148 268.626L92.4887 268.626L89.5897 273.211L89.5897 273.279L94.7545 273.28L94.7542 274.218L88.4474 274.216ZM92.5548 276.007L92.5554 273.953L92.5555 273.548L92.5573 267.28L93.5629 267.28L93.5605 276.007L92.5548 276.007ZM99.2829 276.128C98.6409 276.128 98.0941 275.953 97.6424 275.603C97.1908 275.251 96.8458 274.741 96.6074 274.073C96.3689 273.403 96.2498 272.593 96.2501 271.644C96.2503 270.701 96.3699 269.896 96.6087 269.228C96.8504 268.558 97.1971 268.046 97.6489 267.694C98.1035 267.339 98.649 267.162 99.2854 267.162C99.9218 267.162 100.466 267.34 100.917 267.695C101.372 268.048 101.718 268.559 101.957 269.23C102.198 269.897 102.319 270.703 102.318 271.646C102.318 272.595 102.198 273.404 101.96 274.075C101.721 274.742 101.375 275.252 100.924 275.604C100.472 275.954 99.925 276.128 99.2829 276.128ZM99.2832 275.19C99.9195 275.191 100.414 274.884 100.766 274.27C101.119 273.657 101.295 272.782 101.296 271.646C101.296 270.89 101.215 270.246 101.053 269.715C100.894 269.184 100.664 268.779 100.363 268.5C100.065 268.222 99.7056 268.083 99.2851 268.082C98.6545 268.082 98.1615 268.393 97.8062 269.015C97.4509 269.635 97.2731 270.511 97.2728 271.644C97.2726 272.4 97.352 273.042 97.5109 273.571C97.6698 274.099 97.8984 274.501 98.1966 274.777C98.4977 275.052 98.8599 275.19 99.2832 275.19ZM106.869 276.13C106.227 276.13 105.68 275.955 105.228 275.605C104.777 275.253 104.432 274.743 104.193 274.075C103.955 273.405 103.836 272.595 103.836 271.646C103.836 270.703 103.956 269.898 104.194 269.23C104.436 268.56 104.783 268.049 105.235 267.696C105.689 267.341 106.235 267.164 106.871 267.164C107.507 267.164 108.051 267.342 108.503 267.697C108.958 268.05 109.304 268.561 109.542 269.232C109.784 269.899 109.904 270.705 109.904 271.648C109.904 272.597 109.784 273.406 109.545 274.077C109.307 274.744 108.961 275.254 108.509 275.606C108.058 275.956 107.511 276.13 106.869 276.13ZM106.869 275.193C107.505 275.193 108 274.886 108.352 274.272C108.705 273.659 108.881 272.784 108.881 271.648C108.881 270.892 108.801 270.248 108.639 269.717C108.48 269.186 108.25 268.781 107.949 268.503C107.651 268.224 107.291 268.085 106.871 268.085C106.24 268.084 105.747 268.395 105.392 269.017C105.037 269.637 104.859 270.513 104.859 271.647C104.858 272.402 104.938 273.044 105.097 273.573C105.256 274.101 105.484 274.503 105.782 274.779C106.083 275.055 106.446 275.192 106.869 275.193Z" fill="#808D9E"/>
</g>
<g clip-path="url(#clip12_256_1038)">
<path d="M91.5589 242.126C91.2009 242.12 90.843 242.052 90.4851 241.921C90.1272 241.79 89.8005 241.57 89.5052 241.26C89.2098 240.948 88.9727 240.526 88.7939 239.994C88.615 239.46 88.5257 238.79 88.5259 237.983C88.5262 237.21 88.5988 236.526 88.7438 235.929C88.8889 235.33 89.0993 234.825 89.3749 234.416C89.6506 234.005 89.9831 233.692 90.3724 233.479C90.7645 233.266 91.2063 233.16 91.6977 233.16C92.1864 233.16 92.621 233.258 93.0016 233.454C93.3851 233.648 93.6975 233.918 93.9389 234.264C94.1803 234.611 94.3364 235.01 94.4073 235.462L93.3676 235.462C93.2711 235.069 93.0837 234.744 92.8053 234.486C92.527 234.227 92.1577 234.098 91.6975 234.097C91.0213 234.097 90.4886 234.391 90.0992 234.979C89.7127 235.567 89.5179 236.392 89.5147 237.455L89.5829 237.455C89.7421 237.213 89.931 237.007 90.1498 236.837C90.3715 236.664 90.6158 236.53 90.8829 236.437C91.15 236.343 91.4327 236.296 91.731 236.296C92.231 236.296 92.6883 236.422 93.103 236.672C93.5177 236.919 93.85 237.261 94.0999 237.699C94.3498 238.134 94.4746 238.632 94.4745 239.195C94.4743 239.735 94.3535 240.229 94.1118 240.678C93.8702 241.124 93.5307 241.479 93.0931 241.743C92.6584 242.004 92.147 242.132 91.5589 242.126ZM91.5592 241.188C91.9171 241.188 92.2382 241.099 92.5223 240.92C92.8093 240.741 93.0352 240.501 93.2 240.2C93.3677 239.899 93.4516 239.564 93.4517 239.195C93.4518 238.834 93.371 238.506 93.2091 238.21C93.0501 237.912 92.83 237.674 92.5488 237.498C92.2704 237.322 91.9523 237.234 91.5943 237.234C91.3244 237.234 91.073 237.288 90.84 237.395C90.607 237.501 90.4025 237.645 90.2263 237.83C90.0529 238.015 89.9165 238.226 89.817 238.465C89.7175 238.701 89.6677 238.949 89.6677 239.211C89.6676 239.557 89.7484 239.881 89.9103 240.182C90.075 240.483 90.2993 240.726 90.5834 240.911C90.8703 241.096 91.1955 241.188 91.5592 241.188ZM99.0818 242.128C98.4397 242.128 97.8929 241.953 97.4413 241.603C96.9897 241.251 96.6446 240.741 96.4062 240.073C96.1677 239.403 96.0486 238.593 96.0489 237.644C96.0492 236.701 96.1687 235.896 96.4075 235.228C96.6492 234.558 96.9959 234.046 97.4477 233.694C97.9024 233.339 98.4479 233.162 99.0842 233.162C99.7206 233.162 100.265 233.34 100.716 233.695C101.171 234.047 101.517 234.559 101.756 235.229C101.997 235.897 102.117 236.703 102.117 237.646C102.117 238.595 101.997 239.404 101.758 240.075C101.52 240.742 101.174 241.252 100.723 241.604C100.271 241.953 99.7238 242.128 99.0818 242.128ZM99.082 241.19C99.7184 241.191 100.213 240.884 100.565 240.27C100.918 239.657 101.094 238.782 101.094 237.645C101.095 236.89 101.014 236.246 100.852 235.715C100.693 235.184 100.463 234.779 100.162 234.5C99.8638 234.222 99.5044 234.083 99.084 234.082C98.4533 234.082 97.9603 234.393 97.605 235.015C97.2497 235.634 97.0719 236.511 97.0716 237.644C97.0714 238.4 97.1508 239.042 97.3097 239.571C97.4687 240.099 97.6973 240.501 97.9955 240.777C98.2965 241.052 98.6587 241.19 99.082 241.19ZM106.667 242.13C106.025 242.13 105.479 241.955 105.027 241.605C104.575 241.253 104.23 240.743 103.992 240.075C103.753 239.405 103.634 238.595 103.635 237.646C103.635 236.703 103.754 235.898 103.993 235.23C104.235 234.56 104.582 234.048 105.033 233.696C105.488 233.341 106.034 233.164 106.67 233.164C107.306 233.164 107.85 233.342 108.302 233.697C108.756 234.05 109.103 234.561 109.341 235.232C109.583 235.899 109.703 236.705 109.703 237.648C109.703 238.597 109.583 239.406 109.344 240.077C109.105 240.744 108.76 241.254 108.308 241.606C107.856 241.956 107.31 242.13 106.667 242.13ZM106.668 241.192C107.304 241.193 107.798 240.886 108.151 240.272C108.503 239.659 108.68 238.784 108.68 237.648C108.68 236.892 108.599 236.248 108.438 235.717C108.279 235.186 108.049 234.781 107.748 234.502C107.449 234.224 107.09 234.085 106.67 234.085C106.039 234.084 105.546 234.395 105.191 235.017C104.835 235.637 104.658 236.513 104.657 237.646C104.657 238.402 104.736 239.044 104.895 239.573C105.054 240.101 105.283 240.503 105.581 240.779C105.882 241.054 106.244 241.192 106.668 241.192Z" fill="#808D9E"/>
</g>
<g clip-path="url(#clip13_256_1038)">
<path d="M91.4659 208.126C90.8807 208.126 90.3637 208.022 89.9148 207.814C89.4689 207.604 89.121 207.315 88.8711 206.949C88.6212 206.58 88.4977 206.159 88.5007 205.687C88.4979 205.318 88.5705 204.977 88.7183 204.665C88.8661 204.349 89.0679 204.087 89.3236 203.877C89.5822 203.664 89.8706 203.529 90.1888 203.472L90.1888 203.421C89.7712 203.313 89.4389 203.078 89.1918 202.717C88.9448 202.354 88.8227 201.94 88.8257 201.477C88.823 201.034 88.9353 200.638 89.1627 200.288C89.39 199.939 89.7026 199.664 90.1004 199.462C90.501 199.26 90.957 199.16 91.4684 199.16C91.9741 199.16 92.4257 199.261 92.8234 199.463C93.2211 199.665 93.5335 199.94 93.7607 200.29C93.9907 200.639 94.1071 201.036 94.1098 201.479C94.1068 201.942 93.9803 202.355 93.7302 202.719C93.4829 203.079 93.1547 203.314 92.7456 203.422L92.7456 203.473C93.0609 203.53 93.345 203.665 93.5978 203.878C93.8505 204.088 94.0522 204.351 94.2026 204.666C94.3531 204.979 94.4297 205.32 94.4325 205.689C94.4295 206.161 94.3016 206.581 94.0486 206.95C93.7985 207.317 93.4504 207.605 93.0043 207.815C92.5611 208.022 92.0483 208.126 91.4659 208.126ZM91.4662 207.188C91.861 207.188 92.202 207.125 92.4889 206.997C92.7759 206.869 92.9975 206.689 93.1539 206.456C93.3102 206.223 93.3898 205.95 93.3927 205.638C93.39 205.308 93.3048 205.017 93.1373 204.764C92.9697 204.511 92.7411 204.312 92.4514 204.167C92.1645 204.022 91.8364 203.95 91.4671 203.95C91.0949 203.95 90.7625 204.022 90.4698 204.167C90.18 204.312 89.9513 204.51 89.7836 204.763C89.6187 205.016 89.5377 205.307 89.5404 205.637C89.5375 205.949 89.6127 206.222 89.7661 206.455C89.9223 206.688 90.1452 206.868 90.435 206.996C90.7247 207.124 91.0684 207.188 91.4662 207.188ZM91.4673 203.046C91.7798 203.046 92.0568 202.984 92.2983 202.859C92.5427 202.734 92.7345 202.559 92.8737 202.335C93.013 202.111 93.0841 201.848 93.087 201.547C93.0843 201.251 93.0147 200.994 92.8784 200.775C92.7421 200.554 92.5533 200.383 92.3118 200.264C92.0704 200.142 91.7891 200.08 91.4681 200.08C91.1414 200.08 90.8559 200.141 90.6115 200.263C90.3672 200.383 90.1782 200.553 90.0446 200.775C89.911 200.993 89.8456 201.25 89.8484 201.546C89.8455 201.847 89.9122 202.11 90.0485 202.334C90.1876 202.559 90.3793 202.733 90.6236 202.859C90.8679 202.984 91.1491 203.046 91.4673 203.046ZM98.9973 208.128C98.3552 208.128 97.8084 207.953 97.3568 207.603C96.9052 207.251 96.5602 206.741 96.3217 206.073C96.0833 205.403 95.9642 204.593 95.9644 203.644C95.9647 202.701 96.0842 201.896 96.323 201.228C96.5647 200.558 96.9114 200.046 97.3632 199.694C97.8179 199.339 98.3634 199.162 98.9998 199.162C99.6361 199.162 100.18 199.34 100.632 199.695C101.086 200.047 101.433 200.559 101.671 201.229C101.912 201.897 102.033 202.703 102.033 203.646C102.032 204.595 101.913 205.404 101.674 206.075C101.435 206.742 101.09 207.252 100.638 207.604C100.186 207.953 99.6393 208.128 98.9973 208.128ZM98.9975 207.19C99.6339 207.191 100.128 206.884 100.481 206.27C100.833 205.657 101.01 204.782 101.01 203.645C101.01 202.89 100.929 202.246 100.768 201.715C100.609 201.184 100.379 200.779 100.078 200.5C99.7793 200.222 99.42 200.083 98.9995 200.082C98.3688 200.082 97.8758 200.393 97.5205 201.015C97.1653 201.634 96.9875 202.511 96.9872 203.644C96.9869 204.4 97.0663 205.042 97.2253 205.571C97.3842 206.099 97.6128 206.501 97.911 206.777C98.2121 207.052 98.5742 207.19 98.9975 207.19ZM106.583 208.13C105.941 208.13 105.394 207.955 104.943 207.605C104.491 207.253 104.146 206.743 103.907 206.075C103.669 205.405 103.55 204.595 103.55 203.646C103.55 202.703 103.67 201.898 103.909 201.23C104.15 200.56 104.497 200.048 104.949 199.696C105.404 199.341 105.949 199.164 106.585 199.164C107.222 199.164 107.766 199.342 108.217 199.697C108.672 200.05 109.018 200.561 109.257 201.232C109.498 201.899 109.619 202.705 109.618 203.648C109.618 204.597 109.499 205.406 109.26 206.077C109.021 206.744 108.676 207.254 108.224 207.606C107.772 207.956 107.225 208.13 106.583 208.13ZM106.583 207.192C107.22 207.193 107.714 206.886 108.066 206.272C108.419 205.659 108.595 204.784 108.596 203.648C108.596 202.892 108.515 202.248 108.353 201.717C108.194 201.186 107.964 200.781 107.663 200.502C107.365 200.224 107.006 200.085 106.585 200.085C105.955 200.084 105.462 200.395 105.106 201.017C104.751 201.637 104.573 202.513 104.573 203.646C104.573 204.402 104.652 205.044 104.811 205.573C104.97 206.101 105.198 206.503 105.497 206.779C105.798 207.054 106.16 207.192 106.583 207.192Z" fill="#808D9E"/>
</g>
<g filter="url(#filter2_d_256_1038)">
<rect x="258.052" y="190.052" width="14" height="14" rx="7" transform="rotate(0.0158183 258.052 190.052)" fill="#2280FF"/>
<rect x="259.051" y="191.053" width="12" height="12" rx="6" transform="rotate(0.0158183 259.051 191.053)" stroke="white" stroke-width="2"/>
</g>
<rect x="255.541" y="121.052" width="12.2" height="10" rx="2" transform="rotate(0.0158183 255.541 121.052)" fill="#FF5555"/>
<path d="M286.926 124.06L285.693 124.06C285.62 123.705 285.493 123.394 285.311 123.125C285.132 122.857 284.913 122.631 284.655 122.449C284.399 122.263 284.116 122.124 283.804 122.031C283.493 121.938 283.168 121.892 282.83 121.892C282.214 121.892 281.655 122.047 281.155 122.359C280.657 122.67 280.261 123.129 279.966 123.735C279.674 124.342 279.528 125.086 279.528 125.967C279.528 126.849 279.673 127.593 279.965 128.2C280.26 128.806 280.655 129.266 281.153 129.577C281.653 129.889 282.211 130.045 282.828 130.045C283.166 130.045 283.491 129.999 283.802 129.906C284.114 129.813 284.397 129.676 284.653 129.494C284.911 129.308 285.13 129.081 285.309 128.813C285.491 128.541 285.619 128.23 285.692 127.878L286.925 127.879C286.832 128.399 286.663 128.865 286.418 129.275C286.172 129.686 285.867 130.036 285.502 130.324C285.138 130.609 284.728 130.826 284.274 130.975C283.824 131.124 283.341 131.199 282.828 131.199C281.959 131.198 281.187 130.986 280.511 130.561C279.835 130.137 279.303 129.534 278.916 128.751C278.528 127.969 278.334 127.041 278.335 125.967C278.335 124.893 278.529 123.965 278.917 123.183C279.305 122.401 279.837 121.798 280.513 121.374C281.19 120.95 281.962 120.738 282.83 120.738C283.344 120.738 283.826 120.813 284.277 120.962C284.731 121.112 285.14 121.331 285.505 121.619C285.869 121.904 286.174 122.252 286.419 122.663C286.665 123.071 286.833 123.537 286.926 124.06ZM291.36 131.221C290.67 131.221 290.065 131.056 289.545 130.728C289.028 130.4 288.624 129.941 288.332 129.351C288.044 128.761 287.9 128.071 287.901 127.282C287.901 126.487 288.045 125.793 288.334 125.199C288.625 124.606 289.03 124.146 289.547 123.818C290.068 123.49 290.672 123.326 291.362 123.326C292.051 123.326 292.654 123.49 293.171 123.819C293.692 124.147 294.096 124.608 294.384 125.201C294.676 125.794 294.821 126.489 294.821 127.284C294.821 128.073 294.675 128.762 294.383 129.352C294.094 129.942 293.69 130.401 293.169 130.729C292.652 131.057 292.049 131.221 291.36 131.221ZM291.36 130.167C291.884 130.167 292.315 130.033 292.653 129.764C292.991 129.496 293.241 129.143 293.404 128.706C293.566 128.268 293.648 127.794 293.648 127.284C293.648 126.773 293.567 126.298 293.404 125.857C293.242 125.416 292.992 125.06 292.654 124.788C292.316 124.516 291.885 124.38 291.362 124.38C290.838 124.38 290.407 124.515 290.069 124.787C289.731 125.059 289.48 125.415 289.318 125.856C289.155 126.297 289.074 126.772 289.074 127.283C289.074 127.793 289.155 128.267 289.317 128.705C289.479 129.142 289.729 129.495 290.067 129.764C290.405 130.032 290.836 130.167 291.36 130.167ZM296.111 131.063L296.113 123.427L297.247 123.427L297.246 124.62L297.346 124.62C297.505 124.212 297.762 123.896 298.117 123.671C298.471 123.442 298.897 123.328 299.394 123.328C299.898 123.328 300.317 123.443 300.652 123.671C300.99 123.897 301.253 124.214 301.442 124.621L301.522 124.621C301.717 124.227 302.011 123.914 302.402 123.682C302.793 123.447 303.262 123.329 303.809 123.329C304.492 123.329 305.05 123.543 305.484 123.971C305.918 124.395 306.135 125.057 306.135 125.955L306.134 131.066L304.96 131.065L304.962 125.955C304.962 125.391 304.808 124.988 304.5 124.746C304.192 124.504 303.829 124.383 303.411 124.383C302.874 124.383 302.458 124.545 302.163 124.87C301.868 125.191 301.72 125.599 301.72 126.093L301.719 131.065L300.526 131.064L300.527 125.834C300.527 125.4 300.387 125.05 300.105 124.785C299.823 124.516 299.46 124.382 299.016 124.382C298.711 124.382 298.426 124.463 298.161 124.625C297.899 124.788 297.687 125.013 297.524 125.301C297.365 125.586 297.286 125.916 297.286 126.291L297.284 131.063L296.111 131.063ZM307.778 133.93L307.781 123.43L308.915 123.43L308.914 124.643L309.053 124.643C309.14 124.511 309.259 124.342 309.412 124.136C309.567 123.927 309.789 123.742 310.078 123.58C310.37 123.414 310.764 123.331 311.261 123.331C311.904 123.332 312.471 123.492 312.961 123.814C313.452 124.136 313.834 124.592 314.109 125.182C314.384 125.772 314.522 126.468 314.521 127.27C314.521 128.078 314.383 128.779 314.108 129.373C313.833 129.963 313.452 130.42 312.964 130.744C312.477 131.066 311.915 131.226 311.279 131.226C310.788 131.226 310.396 131.145 310.101 130.982C309.806 130.817 309.579 130.629 309.42 130.42C309.261 130.208 309.138 130.032 309.052 129.893L308.953 129.893L308.951 133.93L307.778 133.93ZM308.933 127.248C308.933 127.825 309.018 128.334 309.187 128.775C309.355 129.212 309.602 129.555 309.927 129.804C310.252 130.049 310.649 130.172 311.12 130.172C311.611 130.172 312.02 130.043 312.348 129.785C312.68 129.523 312.928 129.172 313.094 128.731C313.263 128.287 313.348 127.793 313.348 127.25C313.348 126.713 313.266 126.229 313.1 125.798C312.938 125.364 312.691 125.02 312.359 124.768C312.031 124.513 311.619 124.385 311.122 124.385C310.644 124.385 310.243 124.506 309.918 124.748C309.594 124.986 309.348 125.321 309.182 125.752C309.017 126.179 308.934 126.678 308.933 127.248ZM319.012 131.228C318.276 131.228 317.641 131.066 317.108 130.741C316.578 130.412 316.168 129.955 315.88 129.368C315.595 128.778 315.453 128.092 315.453 127.31C315.453 126.528 315.596 125.838 315.881 125.242C316.17 124.642 316.571 124.175 317.085 123.84C317.602 123.502 318.205 123.333 318.895 123.333C319.292 123.334 319.685 123.4 320.073 123.533C320.461 123.665 320.814 123.881 321.132 124.179C321.45 124.474 321.703 124.865 321.892 125.353C322.081 125.84 322.175 126.44 322.175 127.153L322.175 127.65L316.288 127.648L316.289 126.634L320.982 126.635C320.982 126.204 320.896 125.82 320.724 125.482C320.555 125.144 320.313 124.877 319.998 124.681C319.687 124.485 319.319 124.388 318.894 124.387C318.427 124.387 318.023 124.503 317.681 124.735C317.343 124.964 317.083 125.262 316.9 125.63C316.718 125.998 316.627 126.392 316.627 126.813L316.626 127.489C316.626 128.066 316.726 128.555 316.924 128.956C317.126 129.354 317.406 129.657 317.764 129.866C318.122 130.071 318.538 130.174 319.012 130.174C319.32 130.174 319.599 130.131 319.847 130.045C320.099 129.956 320.316 129.823 320.499 129.648C320.681 129.469 320.822 129.247 320.922 128.982L322.055 129.3C321.936 129.685 321.735 130.023 321.453 130.314C321.171 130.603 320.823 130.828 320.409 130.99C319.995 131.149 319.529 131.229 319.012 131.228ZM326.782 123.435L326.781 124.429L322.824 124.428L322.824 123.434L326.782 123.435ZM323.978 121.605L325.152 121.605L325.15 128.883C325.149 129.215 325.197 129.464 325.294 129.629C325.393 129.792 325.519 129.901 325.671 129.957C325.827 130.011 325.991 130.037 326.163 130.037C326.293 130.037 326.399 130.031 326.482 130.017C326.564 130.001 326.631 129.988 326.68 129.978L326.919 131.032C326.839 131.062 326.728 131.091 326.586 131.121C326.443 131.154 326.263 131.171 326.044 131.171C325.712 131.171 325.388 131.099 325.069 130.957C324.755 130.814 324.493 130.597 324.284 130.305C324.079 130.013 323.976 129.645 323.976 129.201L323.978 121.605ZM328.045 131.072L328.047 123.435L329.22 123.436L329.218 131.072L328.045 131.072ZM328.644 122.163C328.415 122.163 328.218 122.085 328.052 121.929C327.89 121.773 327.809 121.586 327.809 121.367C327.809 121.148 327.89 120.961 328.052 120.805C328.218 120.65 328.415 120.572 328.644 120.572C328.873 120.572 329.068 120.65 329.231 120.806C329.396 120.962 329.479 121.149 329.479 121.368C329.479 121.586 329.396 121.774 329.23 121.929C329.068 122.085 328.872 122.163 328.644 122.163ZM334.19 123.437L334.19 124.431L330.232 124.43L330.233 123.436L334.19 123.437ZM331.386 121.607L332.56 121.607L332.558 128.886C332.558 129.217 332.606 129.466 332.702 129.631C332.801 129.794 332.927 129.903 333.079 129.96C333.235 130.013 333.399 130.039 333.572 130.039C333.701 130.039 333.807 130.033 333.89 130.019C333.973 130.003 334.039 129.99 334.089 129.98L334.327 131.034C334.247 131.064 334.136 131.093 333.994 131.123C333.851 131.156 333.671 131.173 333.452 131.173C333.121 131.173 332.796 131.101 332.478 130.959C332.163 130.816 331.901 130.599 331.692 130.307C331.487 130.015 331.384 129.648 331.384 129.203L331.386 121.607ZM338.473 131.234C337.784 131.234 337.179 131.069 336.658 130.741C336.141 130.413 335.737 129.954 335.446 129.364C335.158 128.774 335.014 128.084 335.014 127.295C335.014 126.5 335.158 125.806 335.447 125.212C335.739 124.619 336.143 124.159 336.66 123.831C337.181 123.503 337.786 123.339 338.475 123.339C339.165 123.339 339.768 123.503 340.285 123.832C340.805 124.16 341.209 124.621 341.497 125.214C341.789 125.807 341.934 126.502 341.934 127.297C341.934 128.086 341.788 128.775 341.496 129.365C341.208 129.955 340.803 130.414 340.283 130.742C339.766 131.07 339.162 131.234 338.473 131.234ZM338.473 130.18C338.997 130.18 339.428 130.046 339.766 129.777C340.104 129.509 340.354 129.156 340.517 128.719C340.679 128.281 340.761 127.807 340.761 127.297C340.761 126.786 340.68 126.311 340.518 125.87C340.355 125.429 340.105 125.073 339.767 124.801C339.429 124.529 338.999 124.393 338.475 124.393C337.951 124.393 337.52 124.528 337.182 124.8C336.844 125.072 336.594 125.428 336.431 125.869C336.269 126.31 336.187 126.785 336.187 127.296C336.187 127.806 336.268 128.28 336.43 128.718C336.593 129.155 336.843 129.508 337.181 129.777C337.519 130.045 337.95 130.18 338.473 130.18ZM343.224 131.076L343.226 123.44L344.36 123.44L344.36 124.593L344.439 124.593C344.578 124.216 344.83 123.909 345.195 123.674C345.56 123.439 345.971 123.321 346.428 123.321C346.514 123.321 346.622 123.323 346.751 123.326C346.88 123.33 346.978 123.335 347.045 123.341L347.044 124.534C347.004 124.524 346.913 124.51 346.771 124.49C346.632 124.466 346.484 124.455 346.328 124.455C345.957 124.455 345.626 124.532 345.334 124.688C345.046 124.84 344.817 125.053 344.648 125.324C344.482 125.593 344.399 125.899 344.399 126.244L344.398 131.076L343.224 131.076Z" fill="#1D1E25"/>
<rect x="87.1812" y="121.005" width="12.2" height="10" rx="2" transform="rotate(0.0158183 87.1812 121.005)" fill="#2280FF"/>
<path d="M110.374 120.83L111.846 120.83L115.303 129.283L115.423 129.283L118.885 120.832L120.357 120.833L120.354 131.014L119.201 131.014L119.203 123.278L119.103 123.278L115.919 131.013L114.806 131.013L111.626 123.276L111.527 123.276L111.525 131.012L110.371 131.012L110.374 120.83ZM122.922 133.879C122.723 133.879 122.546 133.862 122.39 133.829C122.234 133.799 122.127 133.769 122.067 133.739L122.365 132.705C122.651 132.778 122.902 132.805 123.121 132.785C123.34 132.765 123.534 132.668 123.703 132.492C123.875 132.32 124.033 132.04 124.175 131.652L124.394 131.055L121.573 123.378L122.845 123.379L124.952 129.465L125.031 129.465L127.141 123.38L128.414 123.38L125.17 132.129C125.024 132.524 124.843 132.85 124.627 133.109C124.412 133.37 124.162 133.564 123.877 133.69C123.595 133.816 123.277 133.879 122.922 133.879ZM132.897 133.882L132.9 123.382L134.033 123.382L134.033 124.595L134.172 124.595C134.258 124.462 134.378 124.293 134.53 124.088C134.686 123.879 134.908 123.694 135.197 123.531C135.488 123.366 135.883 123.283 136.38 123.283C137.023 123.283 137.59 123.444 138.08 123.766C138.57 124.087 138.953 124.543 139.228 125.133C139.503 125.723 139.64 126.419 139.64 127.221C139.64 128.03 139.502 128.731 139.227 129.324C138.952 129.914 138.57 130.372 138.083 130.696C137.596 131.018 137.034 131.178 136.398 131.178C135.907 131.178 135.514 131.097 135.219 130.934C134.924 130.768 134.697 130.581 134.538 130.372C134.379 130.16 134.257 129.984 134.171 129.845L134.071 129.845L134.07 133.882L132.897 133.882ZM134.052 127.2C134.052 127.777 134.136 128.286 134.305 128.726C134.474 129.164 134.721 129.507 135.046 129.756C135.37 130.001 135.768 130.124 136.239 130.124C136.729 130.124 137.139 129.995 137.467 129.736C137.798 129.475 138.047 129.123 138.213 128.683C138.382 128.239 138.467 127.745 138.467 127.201C138.467 126.664 138.384 126.18 138.219 125.749C138.056 125.315 137.81 124.972 137.478 124.72C137.15 124.465 136.737 124.337 136.24 124.337C135.763 124.337 135.362 124.458 135.037 124.7C134.712 124.938 134.467 125.273 134.301 125.704C134.135 126.131 134.052 126.63 134.052 127.2ZM140.929 131.02L140.931 123.384L142.064 123.384L142.064 124.537L142.144 124.538C142.283 124.16 142.535 123.853 142.9 123.618C143.264 123.383 143.675 123.265 144.133 123.265C144.219 123.265 144.327 123.267 144.456 123.27C144.585 123.274 144.683 123.279 144.749 123.285L144.749 124.479C144.709 124.469 144.618 124.454 144.475 124.434C144.336 124.411 144.189 124.399 144.033 124.399C143.662 124.399 143.33 124.477 143.039 124.632C142.75 124.785 142.521 124.997 142.352 125.268C142.186 125.537 142.104 125.843 142.103 126.188L142.102 131.02L140.929 131.02ZM148.508 131.181C147.818 131.181 147.213 131.017 146.693 130.689C146.176 130.36 145.772 129.901 145.48 129.311C145.192 128.721 145.048 128.032 145.048 127.243C145.049 126.447 145.193 125.753 145.482 125.16C145.773 124.567 146.178 124.106 146.695 123.778C147.215 123.45 147.82 123.286 148.51 123.286C149.199 123.287 149.802 123.451 150.319 123.779C150.84 124.107 151.244 124.568 151.532 125.162C151.824 125.755 151.969 126.449 151.969 127.245C151.969 128.034 151.823 128.723 151.531 129.313C151.242 129.903 150.838 130.362 150.317 130.69C149.8 131.018 149.197 131.181 148.508 131.181ZM148.508 130.127C149.032 130.127 149.462 129.993 149.801 129.725C150.139 129.457 150.389 129.104 150.552 128.666C150.714 128.229 150.795 127.755 150.796 127.244C150.796 126.734 150.715 126.258 150.552 125.818C150.39 125.377 150.14 125.02 149.802 124.748C149.464 124.477 149.033 124.341 148.509 124.34C147.986 124.34 147.555 124.476 147.217 124.748C146.879 125.019 146.628 125.376 146.466 125.816C146.303 126.257 146.222 126.733 146.222 127.243C146.222 127.754 146.303 128.228 146.465 128.665C146.627 129.103 146.877 129.456 147.215 129.724C147.553 129.993 147.984 130.127 148.508 130.127ZM156.142 131.183C155.506 131.183 154.944 131.022 154.457 130.701C153.97 130.376 153.589 129.918 153.314 129.328C153.039 128.735 152.902 128.034 152.902 127.225C152.902 126.423 153.04 125.727 153.315 125.137C153.59 124.547 153.973 124.092 154.464 123.77C154.955 123.449 155.521 123.288 156.164 123.289C156.662 123.289 157.054 123.372 157.343 123.537C157.634 123.7 157.856 123.886 158.009 124.094C158.164 124.3 158.285 124.469 158.371 124.602L158.471 124.602L158.472 120.843L159.645 120.843L159.642 131.025L158.509 131.025L158.509 129.852L158.37 129.852C158.284 129.991 158.161 130.166 158.002 130.379C157.843 130.587 157.616 130.774 157.321 130.94C157.026 131.102 156.633 131.184 156.142 131.183ZM156.302 130.129C156.772 130.13 157.17 130.007 157.495 129.762C157.82 129.513 158.067 129.17 158.236 128.733C158.405 128.292 158.49 127.783 158.49 127.207C158.49 126.637 158.407 126.138 158.242 125.71C158.076 125.279 157.831 124.945 157.506 124.706C157.182 124.464 156.781 124.343 156.303 124.343C155.806 124.342 155.392 124.47 155.06 124.725C154.732 124.977 154.485 125.32 154.319 125.754C154.157 126.185 154.075 126.669 154.075 127.206C154.075 127.749 154.158 128.243 154.323 128.687C154.492 129.128 154.741 129.479 155.069 129.741C155.4 130 155.811 130.129 156.302 130.129ZM166.268 127.905L166.269 123.391L167.442 123.391L167.44 131.027L166.267 131.027L166.267 129.735L166.188 129.734C166.008 130.122 165.73 130.452 165.352 130.724C164.974 130.992 164.497 131.126 163.92 131.126C163.443 131.126 163.019 131.021 162.647 130.812C162.276 130.6 161.985 130.282 161.773 129.858C161.561 129.43 161.455 128.891 161.455 128.242L161.456 123.389L162.63 123.39L162.628 128.162C162.628 128.719 162.784 129.163 163.095 129.495C163.41 129.827 163.811 129.992 164.298 129.992C164.59 129.993 164.887 129.918 165.188 129.769C165.493 129.62 165.748 129.391 165.954 129.083C166.163 128.775 166.267 128.382 166.268 127.905ZM172.191 131.188C171.475 131.188 170.859 131.018 170.342 130.68C169.825 130.342 169.427 129.876 169.149 129.283C168.871 128.69 168.732 128.012 168.732 127.249C168.732 126.474 168.875 125.789 169.16 125.196C169.449 124.6 169.85 124.134 170.364 123.8C170.881 123.462 171.484 123.293 172.173 123.293C172.71 123.293 173.194 123.393 173.625 123.592C174.056 123.791 174.409 124.069 174.684 124.427C174.959 124.785 175.129 125.203 175.196 125.68L174.022 125.68C173.933 125.332 173.734 125.023 173.426 124.755C173.121 124.483 172.71 124.347 172.193 124.347C171.736 124.347 171.335 124.466 170.99 124.705C170.648 124.94 170.382 125.273 170.189 125.704C170 126.131 169.906 126.633 169.905 127.21C169.905 127.8 169.998 128.314 170.183 128.751C170.372 129.189 170.637 129.529 170.979 129.771C171.323 130.013 171.727 130.134 172.191 130.134C172.496 130.134 172.773 130.081 173.022 129.975C173.27 129.869 173.481 129.717 173.653 129.518C173.826 129.319 173.948 129.08 174.021 128.802L175.195 128.802C175.128 129.253 174.964 129.659 174.702 130.02C174.444 130.378 174.1 130.663 173.673 130.875C173.249 131.084 172.755 131.188 172.191 131.188ZM179.732 123.394L179.732 124.389L175.775 124.388L175.775 123.393L179.732 123.394ZM176.929 121.564L178.102 121.564L178.1 128.843C178.1 129.174 178.148 129.423 178.244 129.589C178.344 129.751 178.47 129.861 178.622 129.917C178.778 129.97 178.942 129.997 179.114 129.997C179.243 129.997 179.349 129.99 179.432 129.977C179.515 129.96 179.581 129.947 179.631 129.937L179.87 130.991C179.79 131.021 179.679 131.051 179.536 131.08C179.394 131.114 179.213 131.13 178.994 131.13C178.663 131.13 178.338 131.059 178.02 130.916C177.705 130.773 177.444 130.556 177.235 130.265C177.029 129.973 176.927 129.605 176.927 129.161L176.929 121.564Z" fill="#1D1E25"/>
</g>
</g>
<defs>
<filter id="filter0_d_256_1038" x="-0.00244141" y="-0.00219727" width="579.096" height="506.116" filterUnits="userSpaceOnUse" color-interpolation-filters="sRGB">
<feFlood flood-opacity="0" result="BackgroundImageFix"/>
<feColorMatrix in="SourceAlpha" type="matrix" values="0 0 0 0 0 0 0 0 0 0 0 0 0 0 0 0 0 0 127 0" result="hardAlpha"/>
<feOffset dx="20" dy="40"/>
<feGaussianBlur stdDeviation="40"/>
<feComposite in2="hardAlpha" operator="out"/>
<feColorMatrix type="matrix" values="0 0 0 0 0.348368 0 0 0 0 0.377296 0 0 0 0 0.529167 0 0 0 0.12 0"/>
<feBlend mode="multiply" in2="BackgroundImageFix" result="effect1_dropShadow_256_1038"/>
<feBlend mode="normal" in="SourceGraphic" in2="effect1_dropShadow_256_1038" result="shape"/>
</filter>
<filter id="filter1_d_256_1038" x="252.051" y="138.06" width="116.007" height="82.0133" filterUnits="userSpaceOnUse" color-interpolation-filters="sRGB">
<feFlood flood-opacity="0" result="BackgroundImageFix"/>
<feColorMatrix in="SourceAlpha" type="matrix" values="0 0 0 0 0 0 0 0 0 0 0 0 0 0 0 0 0 0 127 0" result="hardAlpha"/>
<feOffset dy="4"/>
<feGaussianBlur stdDeviation="11"/>
<feComposite in2="hardAlpha" operator="out"/>
<feColorMatrix type="matrix" values="0 0 0 0 0.624722 0 0 0 0 0.6401 0 0 0 0 0.720833 0 0 0 0.25 0"/>
<feBlend mode="multiply" in2="BackgroundImageFix" result="effect1_dropShadow_256_1038"/>
<feBlend mode="normal" in="SourceGraphic" in2="effect1_dropShadow_256_1038" result="shape"/>
</filter>
<filter id="filter2_d_256_1038" x="254.05" y="188.054" width="22" height="22" filterUnits="userSpaceOnUse" color-interpolation-filters="sRGB">
<feFlood flood-opacity="0" result="BackgroundImageFix"/>
<feColorMatrix in="SourceAlpha" type="matrix" values="0 0 0 0 0 0 0 0 0 0 0 0 0 0 0 0 0 0 127 0" result="hardAlpha"/>
<feOffset dy="2"/>
<feGaussianBlur stdDeviation="2"/>
<feColorMatrix type="matrix" values="0 0 0 0 0.268354 0 0 0 0 0.268354 0 0 0 0 0.31049 0 0 0 0.15 0"/>
<feBlend mode="normal" in2="BackgroundImageFix" result="effect1_dropShadow_256_1038"/>
<feBlend mode="normal" in="SourceGraphic" in2="effect1_dropShadow_256_1038" result="shape"/>
</filter>
<linearGradient id="paint0_linear_256_1038" x1="266.51" y1="160.055" x2="266.46" y2="343.055" gradientUnits="userSpaceOnUse">
<stop stop-color="#2A85FF"/>
<stop offset="1" stop-color="#2A85FF" stop-opacity="0"/>
</linearGradient>
<clipPath id="clip0_256_1038">
<rect width="366" height="260" fill="white" transform="translate(86.5752 106.005) rotate(0.0158183)"/>
</clipPath>
<clipPath id="clip1_256_1038">
<rect width="26.84" height="206" fill="white" transform="translate(411.69 160.095) rotate(0.0158183)"/>
</clipPath>
<clipPath id="clip2_256_1038">
<rect width="29.28" height="206" fill="white" transform="translate(358.01 160.08) rotate(0.0158183)"/>
</clipPath>
<clipPath id="clip3_256_1038">
<rect width="30.5" height="206" fill="white" transform="translate(303.11 160.065) rotate(0.0158183)"/>
</clipPath>
<clipPath id="clip4_256_1038">
<rect width="48.8" height="206" fill="white" transform="translate(242.11 160.048) rotate(0.0158183)"/>
</clipPath>
<clipPath id="clip5_256_1038">
<rect width="29.28" height="206" fill="white" transform="translate(200.63 160.037) rotate(0.0158183)"/>
</clipPath>
<clipPath id="clip6_256_1038">
<rect width="32.94" height="206" fill="white" transform="translate(143.29 160.021) rotate(0.0158183)"/>
</clipPath>
<clipPath id="clip7_256_1038">
<rect width="28.06" height="206" fill="white" transform="translate(90.8306 160.006) rotate(0.0158183)"/>
</clipPath>
<clipPath id="clip8_256_1038">
<rect width="17.08" height="24" fill="white" transform="translate(96.9307 158.008) rotate(0.0158183)"/>
</clipPath>
<clipPath id="clip9_256_1038">
<rect width="10.98" height="24" fill="white" transform="translate(104.204 328.01) rotate(0.0158183)"/>
</clipPath>
<clipPath id="clip10_256_1038">
<rect width="29.28" height="24" fill="white" transform="translate(85.9131 294.005) rotate(0.0158183)"/>
</clipPath>
<clipPath id="clip11_256_1038">
<rect width="29.28" height="24" fill="white" transform="translate(85.9224 260.005) rotate(0.0158183)"/>
</clipPath>
<clipPath id="clip12_256_1038">
<rect width="29.28" height="24" fill="white" transform="translate(85.9321 226.005) rotate(0.0158183)"/>
</clipPath>
<clipPath id="clip13_256_1038">
<rect width="29.28" height="24" fill="white" transform="translate(85.9414 192.005) rotate(0.0158183)"/>
</clipPath>
</defs>
</svg>
