<svg width="580" height="280" viewBox="0 0 580 280" fill="none" xmlns="http://www.w3.org/2000/svg">
<g filter="url(#filter0_d_256_1112)">
<rect x="60.0308" y="39.9978" width="419" height="119" rx="8" transform="rotate(0.0158183 60.0308 39.9978)" fill="black"/>
<path d="M94.5779 105.826L94.5829 87.6437L95.7477 87.644L95.7426 105.826L94.5779 105.826ZM97.6707 93.646C97.6141 93.0731 97.3703 92.6279 96.9396 92.3106C96.5088 91.9932 95.9241 91.8344 95.1854 91.8342C94.6835 91.8341 94.2597 91.905 93.9141 92.0469C93.5684 92.1842 93.3032 92.3758 93.1184 92.622C92.9385 92.8682 92.8484 93.1475 92.8483 93.46C92.8388 93.7204 92.8932 93.9477 93.0115 94.1419C93.1345 94.336 93.3026 94.5042 93.5156 94.6463C93.7286 94.7836 93.9748 94.9044 94.2542 95.0087C94.5335 95.1082 94.8318 95.1935 95.149 95.2646L96.4557 95.5775C97.0901 95.7197 97.6725 95.9092 98.2027 96.1461C98.7329 96.383 99.1921 96.6743 99.5803 97.0201C99.9685 97.3658 100.269 97.7731 100.482 98.2419C100.7 98.7107 100.811 99.2482 100.815 99.8542C100.81 100.744 100.583 101.516 100.133 102.169C99.6876 102.818 99.0435 103.322 98.2006 103.682C97.3625 104.037 96.3515 104.214 95.1678 104.213C93.9936 104.213 92.9709 104.033 92.0998 103.673C91.2334 103.313 90.5565 102.78 90.069 102.074C89.5862 101.364 89.3331 100.486 89.3097 99.4391L92.2856 99.44C92.3186 99.9277 92.4582 100.335 92.7043 100.662C92.9552 100.984 93.2889 101.228 93.7055 101.393C94.1269 101.555 94.6027 101.635 95.133 101.635C95.6538 101.635 96.106 101.56 96.4896 101.408C96.8779 101.257 97.1786 101.046 97.3918 100.777C97.6049 100.507 97.7115 100.197 97.7116 99.8463C97.7117 99.5196 97.6147 99.2449 97.4207 99.0223C97.2313 98.7997 96.952 98.6103 96.5827 98.4539C96.2182 98.2976 95.7708 98.1554 95.2405 98.0274L93.6568 97.6293C92.4306 97.3306 91.4624 96.864 90.7524 96.2293C90.0423 95.5946 89.6898 94.7399 89.6949 93.6651C89.6904 92.7844 89.925 92.0151 90.3986 91.357C90.877 90.699 91.5329 90.1855 92.3664 89.8164C93.1998 89.4473 94.1468 89.2629 95.2074 89.2632C96.287 89.2635 97.2292 89.4484 98.034 89.818C98.8436 90.1875 99.4731 90.7014 99.9228 91.3597C100.372 92.0179 100.604 92.7803 100.618 93.6468L97.6707 93.646ZM108.174 104.21C107.113 104.21 106.169 104.027 105.34 103.662C104.516 103.293 103.866 102.786 103.387 102.142C102.914 101.493 102.671 100.745 102.657 99.8974L105.753 99.8982C105.772 100.253 105.888 100.566 106.101 100.836C106.319 101.101 106.607 101.307 106.967 101.454C107.327 101.601 107.732 101.674 108.182 101.674C108.65 101.675 109.065 101.592 109.425 101.426C109.785 101.261 110.066 101.031 110.27 100.738C110.474 100.444 110.576 100.106 110.576 99.722C110.576 99.3337 110.467 98.9904 110.249 98.6921C110.036 98.389 109.729 98.1522 109.326 97.9816C108.928 97.811 108.455 97.7257 107.906 97.7255L106.549 97.7251L106.55 95.4666L107.906 95.467C108.37 95.4671 108.78 95.3867 109.135 95.2259C109.495 95.065 109.774 94.8425 109.973 94.5585C110.172 94.2697 110.272 93.9336 110.272 93.55C110.272 93.1855 110.185 92.8658 110.009 92.5912C109.839 92.3118 109.598 92.0939 109.285 91.9375C108.977 91.7812 108.618 91.703 108.206 91.7029C107.789 91.7028 107.408 91.7784 107.062 91.9298C106.716 92.0765 106.439 92.2871 106.231 92.5617C106.023 92.8363 105.911 93.1582 105.897 93.5275L102.95 93.5267C102.964 92.6886 103.203 91.9501 103.667 91.311C104.132 90.6719 104.757 90.1726 105.543 89.8129C106.334 89.4486 107.226 89.2665 108.221 89.2668C109.224 89.2671 110.103 89.4496 110.855 89.8144C111.608 90.1792 112.193 90.6718 112.609 91.2922C113.03 91.9078 113.239 92.5991 113.234 93.3662C113.238 94.1806 112.985 94.86 112.473 95.4043C111.966 95.9487 111.306 96.2942 110.491 96.4407L110.491 96.5544C111.561 96.692 112.376 97.0639 112.934 97.6701C113.497 98.2716 113.777 99.0245 113.772 99.9288C113.776 100.757 113.537 101.494 113.054 102.137C112.575 102.781 111.915 103.288 111.072 103.657C110.229 104.026 109.263 104.21 108.174 104.21ZM122.313 89.4696L122.309 104.015L119.234 104.014L119.237 92.3877L119.152 92.3877L115.82 94.4749L115.821 91.7476L119.423 89.4688L122.313 89.4696ZM128.302 102.028L128.224 102.809C128.162 103.434 128.044 104.057 127.868 104.677C127.698 105.302 127.518 105.868 127.328 106.374C127.143 106.881 126.994 107.279 126.88 107.567L124.92 107.567C124.991 107.288 125.088 106.897 125.212 106.395C125.335 105.898 125.451 105.339 125.56 104.719C125.669 104.099 125.738 103.467 125.767 102.823L125.802 102.027L128.302 102.028ZM136.157 104.338C134.935 104.333 133.884 104.032 133.004 103.436C132.128 102.839 131.453 101.974 130.98 100.843C130.512 99.7109 130.28 98.3496 130.285 96.7587C130.286 95.1725 130.52 93.8208 130.99 92.7035C131.463 91.5862 132.138 90.7365 133.014 90.1543C133.895 89.5674 134.944 89.2742 136.161 89.2745C137.378 89.2748 138.424 89.5687 139.3 90.1561C140.18 90.7434 140.857 91.5959 141.33 92.7134C141.804 93.8263 142.038 95.1758 142.032 96.7619C142.032 98.3576 141.795 99.7211 141.321 100.853C140.852 101.984 140.179 102.848 139.303 103.444C138.427 104.041 137.378 104.339 136.157 104.338ZM136.157 101.789C136.991 101.789 137.656 101.37 138.154 100.532C138.651 99.6942 138.898 98.4372 138.893 96.7611C138.894 95.6578 138.78 94.7392 138.553 94.0053C138.331 93.2713 138.014 92.7196 137.602 92.3502C137.195 91.9808 136.714 91.796 136.16 91.7958C135.332 91.7956 134.669 92.2097 134.171 93.0382C133.674 93.8666 133.423 95.1071 133.417 96.7595C133.417 97.877 133.528 98.8098 133.75 99.5579C133.977 100.301 134.297 100.86 134.709 101.234C135.121 101.604 135.603 101.789 136.157 101.789ZM149.49 89.2782C150.238 89.2784 150.958 89.4041 151.649 89.6552C152.345 89.9063 152.965 90.3066 153.51 90.856C154.059 91.4054 154.492 92.1347 154.809 93.0439C155.13 93.9483 155.293 95.0587 155.298 96.375C155.297 97.6108 155.157 98.7139 154.878 99.6845C154.603 100.65 154.207 101.472 153.691 102.149C153.175 102.826 152.552 103.342 151.823 103.696C151.094 104.047 150.279 104.222 149.379 104.221C148.409 104.221 147.552 104.034 146.809 103.66C146.065 103.281 145.467 102.767 145.012 102.118C144.563 101.464 144.29 100.73 144.196 99.9159L147.229 99.9168C147.347 100.447 147.595 100.859 147.974 101.153C148.353 101.442 148.821 101.586 149.38 101.586C150.327 101.587 151.047 101.175 151.54 100.351C152.032 99.5227 152.281 98.3888 152.286 96.9494L152.187 96.9494C151.969 97.3755 151.675 97.7423 151.306 98.05C150.936 98.3529 150.513 98.5872 150.034 98.7528C149.561 98.9184 149.057 99.0011 148.522 99.0009C147.665 99.0007 146.9 98.7993 146.228 98.3966C145.555 97.994 145.025 97.4398 144.637 96.7342C144.249 96.0286 144.055 95.2237 144.055 94.3193C144.051 93.3439 144.276 92.4751 144.731 91.713C145.186 90.9508 145.82 90.3544 146.635 89.9237C147.454 89.4883 148.406 89.2732 149.49 89.2782ZM149.511 91.693C149.033 91.6928 148.606 91.8064 148.232 92.0335C147.863 92.2607 147.569 92.566 147.351 92.9495C147.138 93.3329 147.034 93.7614 147.038 94.2349C147.038 94.7131 147.142 95.144 147.351 95.5276C147.564 95.9064 147.852 96.2096 148.217 96.4369C148.586 96.6596 149.007 96.771 149.481 96.7711C149.836 96.7712 150.165 96.705 150.468 96.5725C150.771 96.44 151.034 96.2578 151.257 96.0258C151.484 95.7892 151.662 95.517 151.79 95.2092C151.918 94.9015 151.982 94.5748 151.982 94.2292C151.977 93.7699 151.868 93.3484 151.655 92.9649C151.442 92.5813 151.149 92.2734 150.775 92.0413C150.401 91.8092 149.98 91.6931 149.511 91.693ZM157.426 104.025L157.427 101.809L162.606 97.0162C163.046 96.5902 163.416 96.2068 163.714 95.8659C164.017 95.5251 164.247 95.1914 164.403 94.8647C164.56 94.5333 164.638 94.1758 164.638 93.7923C164.638 93.3662 164.541 92.9992 164.347 92.6914C164.153 92.3788 163.888 92.1396 163.552 91.9738C163.216 91.8033 162.835 91.718 162.408 91.7178C161.963 91.7177 161.575 91.8076 161.244 91.9874C160.912 92.1672 160.656 92.4252 160.476 92.7613C160.296 93.0975 160.206 93.4975 160.206 93.9615L157.287 93.9607C157.287 93.009 157.503 92.1829 157.934 91.4822C158.365 90.7816 158.969 90.2396 159.746 89.8563C160.522 89.473 161.417 89.2815 162.43 89.2818C163.472 89.2821 164.379 89.467 165.15 89.8365C165.927 90.2013 166.53 90.7081 166.961 91.3569C167.392 92.0057 167.607 92.7491 167.607 93.5872C167.607 94.1364 167.498 94.6785 167.28 95.2135C167.066 95.7485 166.685 96.3426 166.136 96.9959C165.586 97.6444 164.812 98.423 163.813 99.3319L161.688 101.412L161.688 101.512L167.796 101.513L167.796 104.028L157.426 104.025Z" fill="white"/>
<path d="M148.982 125.386L148.982 126.38L144.865 126.379L144.865 125.385L148.982 125.386ZM146.096 133.022L146.099 124.331C146.099 123.894 146.202 123.529 146.407 123.238C146.613 122.946 146.88 122.727 147.208 122.582C147.536 122.436 147.882 122.363 148.247 122.363C148.535 122.363 148.771 122.386 148.953 122.433C149.135 122.479 149.271 122.522 149.361 122.562L149.022 123.576C148.963 123.556 148.88 123.532 148.774 123.502C148.671 123.472 148.535 123.457 148.366 123.457C147.978 123.457 147.698 123.554 147.526 123.75C147.357 123.945 147.272 124.232 147.272 124.61L147.27 133.022L146.096 133.022ZM150.124 133.023L150.126 125.386L151.26 125.387L151.259 126.54L151.339 126.54C151.478 126.162 151.73 125.856 152.095 125.621C152.46 125.385 152.871 125.268 153.328 125.268C153.414 125.268 153.522 125.27 153.651 125.273C153.78 125.276 153.878 125.281 153.944 125.288L153.944 126.481C153.904 126.471 153.813 126.456 153.671 126.436C153.531 126.413 153.384 126.401 153.228 126.401C152.857 126.401 152.526 126.479 152.234 126.635C151.945 126.787 151.717 126.999 151.548 127.271C151.382 127.539 151.299 127.846 151.299 128.191L151.297 133.023L150.124 133.023ZM157.703 133.184C157.014 133.184 156.409 133.019 155.888 132.691C155.371 132.363 154.967 131.904 154.676 131.314C154.388 130.724 154.244 130.034 154.244 129.245C154.244 128.45 154.388 127.756 154.677 127.162C154.969 126.569 155.373 126.109 155.89 125.781C156.411 125.453 157.016 125.289 157.705 125.289C158.394 125.289 158.998 125.453 159.515 125.782C160.035 126.11 160.439 126.571 160.727 127.164C161.019 127.757 161.164 128.452 161.164 129.247C161.164 130.036 161.018 130.726 160.726 131.315C160.438 131.905 160.033 132.364 159.513 132.692C158.996 133.02 158.392 133.184 157.703 133.184ZM157.703 132.13C158.227 132.13 158.658 131.996 158.996 131.728C159.334 131.459 159.584 131.106 159.747 130.669C159.909 130.231 159.991 129.757 159.991 129.247C159.991 128.737 159.91 128.261 159.748 127.82C159.585 127.379 159.335 127.023 158.997 126.751C158.659 126.479 158.228 126.343 157.705 126.343C157.181 126.343 156.75 126.479 156.412 126.75C156.074 127.022 155.824 127.378 155.661 127.819C155.499 128.26 155.417 128.735 155.417 129.246C155.417 129.756 155.498 130.23 155.66 130.668C155.823 131.105 156.073 131.458 156.411 131.727C156.749 131.995 157.18 132.13 157.703 132.13ZM162.454 133.026L162.456 125.39L163.59 125.39L163.59 126.583L163.689 126.583C163.848 126.176 164.105 125.859 164.46 125.634C164.815 125.405 165.24 125.291 165.738 125.291C166.241 125.291 166.661 125.406 166.995 125.635C167.333 125.86 167.597 126.177 167.786 126.584L167.865 126.584C168.061 126.19 168.354 125.877 168.745 125.645C169.136 125.41 169.605 125.292 170.152 125.292C170.835 125.293 171.394 125.507 171.828 125.934C172.262 126.359 172.479 127.02 172.478 127.918L172.477 133.029L171.304 133.029L171.305 127.918C171.305 127.354 171.151 126.952 170.843 126.71C170.535 126.467 170.172 126.346 169.754 126.346C169.217 126.346 168.801 126.508 168.506 126.833C168.211 127.155 168.064 127.562 168.064 128.056L168.062 133.028L166.869 133.027L166.87 127.797C166.871 127.363 166.73 127.013 166.448 126.748C166.166 126.48 165.804 126.345 165.359 126.345C165.055 126.345 164.769 126.426 164.504 126.588C164.242 126.751 164.03 126.976 163.868 127.264C163.709 127.549 163.629 127.879 163.629 128.254L163.628 133.026L162.454 133.026ZM178.736 122.849L178.733 133.031L177.56 133.03L177.562 122.848L178.736 122.849ZM182.629 133.211C182.145 133.211 181.706 133.119 181.312 132.937C180.917 132.751 180.604 132.484 180.372 132.136C180.14 131.785 180.024 131.36 180.025 130.863C180.025 130.426 180.111 130.071 180.283 129.799C180.456 129.524 180.686 129.309 180.975 129.153C181.263 128.998 181.581 128.882 181.929 128.806C182.281 128.726 182.634 128.663 182.988 128.617C183.452 128.557 183.829 128.513 184.117 128.483C184.409 128.45 184.621 128.395 184.753 128.319C184.889 128.243 184.957 128.11 184.957 127.922L184.957 127.882C184.957 127.391 184.823 127.01 184.555 126.738C184.29 126.466 183.887 126.33 183.347 126.33C182.787 126.33 182.348 126.453 182.029 126.698C181.711 126.943 181.487 127.205 181.358 127.483L180.244 127.085C180.443 126.621 180.709 126.26 181.04 126.001C181.375 125.74 181.74 125.557 182.134 125.455C182.532 125.349 182.923 125.296 183.307 125.296C183.553 125.296 183.834 125.326 184.153 125.386C184.474 125.442 184.784 125.56 185.082 125.739C185.384 125.918 185.634 126.188 185.833 126.55C186.031 126.911 186.131 127.395 186.13 128.001L186.129 133.033L184.956 133.032L184.956 131.998L184.896 131.998C184.817 132.164 184.684 132.341 184.499 132.53C184.313 132.719 184.066 132.88 183.758 133.012C183.449 133.145 183.073 133.211 182.629 133.211ZM182.808 132.157C183.272 132.157 183.663 132.066 183.982 131.884C184.303 131.701 184.545 131.466 184.708 131.178C184.874 130.89 184.956 130.586 184.957 130.268L184.957 129.194C184.907 129.254 184.798 129.309 184.629 129.358C184.463 129.405 184.271 129.446 184.052 129.482C183.837 129.515 183.626 129.545 183.421 129.572C183.218 129.595 183.054 129.615 182.928 129.631C182.623 129.671 182.338 129.735 182.073 129.825C181.811 129.911 181.599 130.042 181.437 130.217C181.278 130.39 181.198 130.625 181.198 130.923C181.198 131.331 181.348 131.639 181.65 131.848C181.955 132.054 182.341 132.157 182.808 132.157ZM193.181 127.108L192.127 127.406C192.061 127.231 191.963 127.06 191.834 126.894C191.708 126.725 191.536 126.586 191.317 126.477C191.098 126.367 190.818 126.312 190.477 126.312C190.01 126.312 189.62 126.42 189.309 126.635C189 126.847 188.846 127.117 188.846 127.445C188.846 127.737 188.952 127.967 189.164 128.136C189.376 128.306 189.707 128.447 190.158 128.559L191.292 128.838C191.974 129.004 192.483 129.258 192.818 129.599C193.152 129.937 193.32 130.373 193.319 130.907C193.319 131.344 193.193 131.735 192.941 132.08C192.693 132.425 192.345 132.696 191.897 132.895C191.45 133.094 190.929 133.193 190.336 133.193C189.557 133.193 188.912 133.023 188.402 132.685C187.892 132.347 187.569 131.853 187.433 131.203L188.547 130.925C188.653 131.336 188.853 131.645 189.148 131.85C189.446 132.056 189.836 132.159 190.316 132.159C190.863 132.159 191.297 132.043 191.619 131.811C191.944 131.576 192.106 131.294 192.106 130.966C192.106 130.701 192.014 130.479 191.828 130.3C191.643 130.117 191.358 129.982 190.973 129.892L189.701 129.593C189.001 129.427 188.488 129.17 188.16 128.822C187.835 128.471 187.673 128.032 187.673 127.505C187.673 127.074 187.794 126.693 188.036 126.361C188.281 126.03 188.614 125.77 189.035 125.581C189.46 125.392 189.94 125.298 190.477 125.298C191.233 125.298 191.826 125.464 192.257 125.796C192.691 126.127 192.999 126.565 193.181 127.108ZM197.908 125.4L197.908 126.394L193.951 126.393L193.951 125.398L197.908 125.4ZM195.105 123.569L196.278 123.57L196.276 130.848C196.276 131.179 196.324 131.428 196.42 131.594C196.519 131.756 196.645 131.866 196.798 131.922C196.953 131.975 197.118 132.002 197.29 132.002C197.419 132.002 197.525 131.995 197.608 131.982C197.691 131.965 197.757 131.952 197.807 131.942L198.045 132.996C197.966 133.026 197.855 133.056 197.712 133.086C197.57 133.119 197.389 133.135 197.17 133.135C196.839 133.135 196.514 133.064 196.196 132.921C195.881 132.778 195.619 132.561 195.411 132.27C195.205 131.978 195.103 131.61 195.103 131.166L195.105 123.569ZM203.363 135.901C203.165 135.901 202.987 135.884 202.831 135.851C202.676 135.821 202.568 135.791 202.508 135.762L202.807 134.728C203.092 134.801 203.344 134.827 203.563 134.807C203.781 134.788 203.975 134.69 204.144 134.514C204.317 134.342 204.474 134.062 204.617 133.674L204.836 133.078L202.014 125.401L203.287 125.401L205.393 131.487L205.473 131.487L207.582 125.402L208.855 125.403L205.611 134.152C205.465 134.546 205.284 134.872 205.069 135.131C204.853 135.393 204.603 135.587 204.318 135.712C204.036 135.838 203.718 135.901 203.363 135.901ZM212.83 133.199C212.094 133.199 211.459 133.036 210.926 132.711C210.395 132.383 209.986 131.926 209.698 131.339C209.413 130.749 209.271 130.063 209.271 129.281C209.271 128.498 209.414 127.809 209.699 127.212C209.988 126.613 210.389 126.145 210.903 125.811C211.42 125.473 212.023 125.304 212.713 125.304C213.11 125.304 213.503 125.371 213.891 125.503C214.279 125.636 214.631 125.852 214.95 126.15C215.268 126.445 215.521 126.836 215.71 127.323C215.899 127.811 215.993 128.411 215.993 129.123L215.993 129.62L210.106 129.619L210.107 128.605L214.8 128.606C214.8 128.175 214.714 127.791 214.542 127.452C214.373 127.114 214.131 126.847 213.816 126.652C213.504 126.456 213.137 126.358 212.712 126.358C212.245 126.358 211.841 126.474 211.499 126.706C211.161 126.934 210.901 127.233 210.718 127.601C210.536 127.968 210.445 128.363 210.445 128.784L210.444 129.46C210.444 130.037 210.544 130.525 210.742 130.927C210.944 131.324 211.224 131.628 211.582 131.837C211.94 132.042 212.356 132.145 212.83 132.145C213.138 132.145 213.417 132.102 213.665 132.016C213.917 131.927 214.134 131.794 214.317 131.619C214.499 131.44 214.64 131.218 214.739 130.952L215.873 131.271C215.753 131.655 215.553 131.993 215.271 132.285C214.989 132.573 214.641 132.799 214.227 132.961C213.812 133.12 213.347 133.199 212.83 133.199ZM219.524 133.221C219.04 133.221 218.601 133.129 218.206 132.947C217.812 132.761 217.499 132.494 217.267 132.146C217.035 131.795 216.919 131.371 216.919 130.874C216.919 130.436 217.006 130.081 217.178 129.81C217.35 129.535 217.581 129.319 217.869 129.164C218.158 129.008 218.476 128.892 218.824 128.816C219.175 128.736 219.528 128.673 219.883 128.627C220.347 128.568 220.723 128.523 221.011 128.493C221.303 128.46 221.515 128.406 221.648 128.329C221.784 128.253 221.852 128.121 221.852 127.932L221.852 127.892C221.852 127.401 221.718 127.02 221.449 126.748C221.184 126.477 220.782 126.341 220.241 126.34C219.681 126.34 219.242 126.463 218.924 126.708C218.606 126.953 218.382 127.215 218.252 127.493L217.139 127.095C217.338 126.631 217.603 126.27 217.935 126.012C218.269 125.75 218.634 125.568 219.029 125.465C219.426 125.359 219.817 125.306 220.202 125.306C220.447 125.306 220.729 125.336 221.047 125.396C221.369 125.452 221.678 125.57 221.977 125.749C222.278 125.928 222.528 126.198 222.727 126.56C222.926 126.921 223.025 127.405 223.025 128.012L223.024 133.043L221.85 133.043L221.851 132.008L221.791 132.008C221.711 132.174 221.579 132.351 221.393 132.54C221.207 132.729 220.96 132.89 220.652 133.022C220.344 133.155 219.968 133.221 219.524 133.221ZM219.703 132.167C220.167 132.167 220.558 132.076 220.876 131.894C221.198 131.712 221.44 131.476 221.602 131.188C221.768 130.9 221.851 130.596 221.851 130.278L221.851 129.204C221.802 129.264 221.692 129.319 221.523 129.368C221.357 129.415 221.165 129.456 220.946 129.493C220.731 129.526 220.521 129.555 220.315 129.582C220.113 129.605 219.949 129.625 219.823 129.641C219.518 129.681 219.233 129.746 218.968 129.835C218.706 129.921 218.494 130.052 218.331 130.228C218.172 130.4 218.092 130.635 218.092 130.934C218.092 131.341 218.243 131.649 218.545 131.858C218.849 132.064 219.236 132.167 219.703 132.167ZM224.665 133.043L224.667 125.407L225.801 125.407L225.8 126.561L225.88 126.561C226.019 126.183 226.271 125.876 226.636 125.641C227.001 125.406 227.412 125.288 227.869 125.288C227.955 125.289 228.063 125.29 228.192 125.294C228.321 125.297 228.419 125.302 228.485 125.309L228.485 126.502C228.445 126.492 228.354 126.477 228.212 126.457C228.073 126.434 227.925 126.422 227.769 126.422C227.398 126.422 227.067 126.5 226.775 126.655C226.486 126.808 226.258 127.02 226.089 127.292C225.923 127.56 225.84 127.867 225.84 128.211L225.838 133.044L224.665 133.043Z" fill="#5C616E"/>
<path d="M105.227 131.121L105.227 129.654L109.549 122.829L110.772 122.83L110.772 124.918L110.026 124.918L107.116 129.525L107.116 129.605L113.147 129.607L113.146 131.123L105.227 131.121ZM110.083 133.011L110.084 130.675L110.104 130.018L110.106 122.829L111.846 122.83L111.843 133.012L110.083 133.011ZM115.576 133.122C115.274 133.122 115.015 133.016 114.8 132.804C114.585 132.592 114.479 132.333 114.482 132.028C114.479 131.73 114.585 131.475 114.801 131.263C115.016 131.051 115.275 130.945 115.576 130.945C115.868 130.945 116.121 131.051 116.337 131.263C116.555 131.475 116.666 131.73 116.67 132.029C116.666 132.231 116.613 132.415 116.51 132.581C116.411 132.746 116.278 132.879 116.113 132.978C115.95 133.074 115.771 133.122 115.576 133.122ZM118.508 133.014L118.508 131.681L122.044 128.217C122.382 127.876 122.664 127.573 122.889 127.307C123.115 127.042 123.284 126.786 123.396 126.537C123.509 126.288 123.566 126.023 123.566 125.742C123.566 125.42 123.493 125.145 123.347 124.916C123.201 124.684 123.001 124.505 122.746 124.379C122.491 124.253 122.201 124.19 121.876 124.19C121.541 124.19 121.248 124.259 120.996 124.399C120.744 124.534 120.548 124.728 120.409 124.98C120.273 125.232 120.205 125.532 120.205 125.88L118.45 125.879C118.45 125.233 118.598 124.671 118.893 124.194C119.188 123.717 119.594 123.348 120.111 123.086C120.632 122.824 121.228 122.693 121.901 122.694C122.584 122.694 123.184 122.822 123.701 123.077C124.218 123.332 124.619 123.682 124.904 124.126C125.192 124.57 125.336 125.078 125.336 125.648C125.336 126.029 125.263 126.403 125.117 126.771C124.971 127.139 124.714 127.547 124.346 127.994C123.981 128.441 123.469 128.983 122.809 129.619L121.054 131.404L121.054 131.473L125.488 131.474L125.488 133.016L118.508 133.014ZM132.647 131.108L132.648 130.572C132.648 130.177 132.731 129.814 132.896 129.483C133.066 129.151 133.311 128.885 133.632 128.683C133.954 128.48 134.343 128.38 134.801 128.38C135.271 128.38 135.666 128.481 135.984 128.683C136.302 128.882 136.542 129.147 136.705 129.479C136.87 129.81 136.953 130.175 136.953 130.573L136.953 131.11C136.953 131.504 136.87 131.867 136.704 132.198C136.538 132.53 136.294 132.796 135.973 132.999C135.655 133.201 135.263 133.302 134.799 133.302C134.335 133.301 133.943 133.2 133.621 132.998C133.3 132.796 133.056 132.529 132.891 132.197C132.728 131.866 132.647 131.503 132.647 131.108ZM133.945 130.572L133.945 131.109C133.945 131.371 134.008 131.611 134.134 131.83C134.26 132.049 134.482 132.158 134.8 132.158C135.121 132.158 135.342 132.05 135.461 131.835C135.584 131.616 135.645 131.374 135.645 131.109L135.645 130.572C135.645 130.307 135.588 130.065 135.472 129.846C135.356 129.624 135.132 129.513 134.8 129.513C134.489 129.513 134.269 129.624 134.139 129.846C134.01 130.065 133.945 130.307 133.945 130.572ZM127.474 125.28L127.474 124.743C127.474 124.346 127.558 123.981 127.728 123.65C127.897 123.318 128.142 123.053 128.464 122.854C128.785 122.652 129.175 122.551 129.632 122.552C130.099 122.552 130.492 122.653 130.81 122.855C131.132 123.054 131.373 123.319 131.536 123.651C131.698 123.982 131.779 124.347 131.779 124.745L131.779 125.281C131.779 125.679 131.696 126.044 131.53 126.375C131.368 126.703 131.126 126.967 130.804 127.165C130.482 127.364 130.091 127.464 129.631 127.463C129.163 127.463 128.769 127.364 128.447 127.165C128.129 126.966 127.887 126.701 127.722 126.369C127.556 126.038 127.473 125.675 127.474 125.28ZM128.781 124.744L128.781 125.281C128.781 125.546 128.842 125.788 128.965 126.007C129.091 126.222 129.313 126.33 129.631 126.33C129.949 126.33 130.168 126.222 130.287 126.007C130.41 125.788 130.471 125.546 130.471 125.281L130.472 124.744C130.472 124.479 130.414 124.237 130.298 124.018C130.182 123.796 129.96 123.685 129.632 123.685C129.317 123.685 129.096 123.796 128.97 124.018C128.844 124.24 128.781 124.482 128.781 124.744ZM128.038 133.016L135.041 122.836L136.284 122.837L129.281 133.017L128.038 133.016Z" fill="#60D39C"/>
<g clip-path="url(#clip0_256_1112)">
<path d="M90.7568 127.256L94.5078 123.507L98.2568 127.258" stroke="#60D39C" stroke-width="2" stroke-linecap="round" stroke-linejoin="round"/>
<path d="M94.5053 132.507L94.5078 123.507" stroke="#60D39C" stroke-width="2" stroke-linecap="round"/>
</g>
<path d="M95.1791 67.6247C95.1328 67.1905 94.9374 66.8524 94.5927 66.6103C94.2514 66.3683 93.8073 66.2472 93.2604 66.247C92.876 66.2469 92.5462 66.3048 92.271 66.4208C91.9959 66.5367 91.7854 66.6941 91.6395 66.8929C91.4936 67.0917 91.419 67.3187 91.4156 67.5739C91.4156 67.7861 91.4636 67.97 91.5596 68.1258C91.659 68.2816 91.7932 68.4142 91.9622 68.5237C92.1312 68.6298 92.3185 68.7193 92.5239 68.7923C92.7294 68.8653 92.9365 68.9266 93.1453 68.9764L94.0998 69.2153C94.4843 69.3049 94.8538 69.426 95.2084 69.5785C95.5663 69.7311 95.8861 69.9234 96.1677 70.1555C96.4527 70.3876 96.678 70.6677 96.8436 70.9959C97.0093 71.3241 97.092 71.7086 97.0919 72.1494C97.0917 72.746 96.9391 73.2713 96.6341 73.7252C96.329 74.1759 95.8881 74.5288 95.3113 74.7838C94.7379 75.0356 94.0435 75.1613 93.2281 75.1611C92.436 75.1609 91.7483 75.0381 91.165 74.7926C90.5851 74.5472 90.1311 74.1891 89.8031 73.7184C89.4784 73.2477 89.3029 72.6742 89.2766 71.9981L91.0912 71.9986C91.1177 72.3532 91.2269 72.6482 91.4191 72.8836C91.6113 73.119 91.8615 73.2947 92.1697 73.4108C92.4812 73.5269 92.8292 73.585 93.2137 73.5851C93.6147 73.5852 93.9661 73.5256 94.2677 73.4064C94.5727 73.2839 94.8113 73.1149 94.9837 72.8995C95.1562 72.6808 95.2441 72.4256 95.2475 72.134C95.2442 71.8688 95.1664 71.65 95.014 71.4776C94.8616 71.3019 94.6478 71.156 94.3728 71.04C94.101 70.9206 93.7829 70.8144 93.4183 70.7215L92.26 70.4229C91.4215 70.2072 90.7587 69.8806 90.2716 69.4429C89.7879 69.002 89.5461 68.4169 89.5463 67.6878C89.5464 67.0879 89.709 66.5626 90.0339 66.1119C90.3622 65.6612 90.808 65.3117 91.3716 65.0633C91.9351 64.8115 92.5731 64.6858 93.2857 64.686C94.0083 64.6862 94.6413 64.8123 95.1848 65.0643C95.7316 65.3131 96.1607 65.6595 96.4721 66.1038C96.7836 66.5447 96.9442 67.0518 96.954 67.6252L95.1791 67.6247ZM100.853 75.1632C100.369 75.1631 99.9336 75.0768 99.5459 74.9043C99.1614 74.7285 98.8566 74.4699 98.6313 74.1285C98.4093 73.7871 98.2984 73.3661 98.2986 72.8656C98.2987 72.4347 98.3783 72.0785 98.5375 71.7968C98.6967 71.5151 98.9138 71.2898 99.189 71.1208C99.4641 70.9519 99.774 70.8244 100.119 70.7383C100.467 70.6489 100.826 70.5844 101.198 70.5447C101.645 70.4984 102.008 70.4571 102.286 70.4207C102.565 70.381 102.767 70.3214 102.893 70.2419C103.022 70.1591 103.087 70.0315 103.087 69.8591L103.087 69.8293C103.087 69.4548 102.976 69.1647 102.754 68.9592C102.532 68.7536 102.212 68.6508 101.795 68.6507C101.354 68.6506 101.004 68.7466 100.746 68.9387C100.49 69.1309 100.318 69.3579 100.228 69.6197L98.5481 69.3806C98.6808 68.9166 98.8997 68.5289 99.2047 68.2174C99.5097 67.9026 99.8826 67.6674 100.323 67.5118C100.764 67.3528 101.252 67.2734 101.785 67.2735C102.153 67.2736 102.519 67.3168 102.884 67.4031C103.248 67.4894 103.581 67.632 103.883 67.8309C104.185 68.0266 104.426 68.2934 104.609 68.6316C104.794 68.9697 104.887 69.3923 104.887 69.8994L104.885 75.0102L103.155 75.0097L103.156 73.9607L103.096 73.9607C102.986 74.1728 102.832 74.3716 102.633 74.5572C102.438 74.7394 102.191 74.8868 101.892 74.9994C101.597 75.1087 101.251 75.1633 100.853 75.1632ZM101.321 73.8409C101.682 73.841 101.996 73.7698 102.261 73.6274C102.526 73.4816 102.73 73.2894 102.872 73.0508C103.018 72.8122 103.091 72.5521 103.091 72.2704L103.092 71.3705C103.035 71.4169 102.939 71.4599 102.803 71.4997C102.671 71.5394 102.521 71.5742 102.356 71.604C102.19 71.6337 102.026 71.6602 101.864 71.6834C101.701 71.7065 101.56 71.7264 101.441 71.7429C101.172 71.7793 100.932 71.8389 100.72 71.9217C100.508 72.0045 100.34 72.1204 100.218 72.2696C100.095 72.4154 100.034 72.6043 100.034 72.8363C100.034 73.1677 100.154 73.418 100.396 73.5871C100.638 73.7562 100.946 73.8408 101.321 73.8409ZM108.498 64.8294L108.495 75.0112L106.695 75.0107L106.698 64.8289L108.498 64.8294ZM113.726 75.1618C112.96 75.1616 112.299 75.0023 111.742 74.684C111.189 74.3623 110.763 73.9081 110.465 73.3214C110.167 72.7313 110.018 72.0369 110.018 71.2382C110.019 70.4527 110.168 69.7633 110.466 69.1701C110.768 68.5736 111.189 68.1097 111.729 67.7784C112.27 67.4438 112.905 67.2766 113.634 67.2768C114.104 67.2769 114.548 67.3533 114.966 67.5059C115.387 67.6551 115.758 67.8872 116.08 68.2022C116.404 68.5172 116.659 68.9183 116.845 69.4055C117.03 69.8895 117.123 70.4662 117.123 71.1357L117.123 71.6876L110.863 71.6858L110.864 70.4728L115.398 70.474C115.395 70.1293 115.32 69.8227 115.174 69.5542C115.029 69.2824 114.825 69.0686 114.563 68.9127C114.304 68.7569 114.003 68.6789 113.658 68.6788C113.29 68.6787 112.967 68.7681 112.689 68.947C112.41 69.1226 112.193 69.3545 112.037 69.6428C111.885 69.9278 111.807 70.241 111.803 70.5824L111.803 71.6414C111.803 72.0855 111.884 72.4667 112.046 72.7849C112.209 73.0998 112.436 73.3418 112.727 73.5109C113.019 73.6767 113.36 73.7597 113.751 73.7598C114.013 73.7599 114.25 73.7235 114.462 73.6506C114.674 73.5744 114.858 73.4635 115.014 73.3177C115.17 73.1719 115.288 72.9913 115.367 72.7759L117.048 72.9653C116.941 73.4094 116.739 73.7971 116.441 74.1284C116.146 74.4565 115.768 74.7116 115.307 74.8938C114.846 75.0726 114.319 75.1619 113.726 75.1618ZM124.681 69.3978L123.041 69.5763C122.994 69.4106 122.913 69.2548 122.797 69.1089C122.684 68.963 122.532 68.8453 122.34 68.7558C122.148 68.6662 121.912 68.6214 121.634 68.6214C121.259 68.6212 120.944 68.7024 120.689 68.8647C120.437 69.027 120.313 69.2375 120.316 69.496C120.313 69.7181 120.394 69.8987 120.56 70.038C120.729 70.1772 121.007 70.2916 121.395 70.3812L122.697 70.66C123.42 70.816 123.957 71.063 124.308 71.4012C124.662 71.7394 124.841 72.1819 124.844 72.7288C124.841 73.2094 124.7 73.6336 124.421 74.0014C124.146 74.3659 123.763 74.6508 123.273 74.8562C122.782 75.0615 122.219 75.1641 121.582 75.164C120.648 75.1637 119.895 74.9679 119.325 74.5767C118.755 74.1821 118.416 73.6335 118.307 72.9308L120.062 72.7623C120.141 73.107 120.31 73.3672 120.569 73.5429C120.827 73.7187 121.163 73.8066 121.578 73.8067C122.005 73.8068 122.348 73.7191 122.607 73.5435C122.869 73.3679 123 73.1508 123 72.8923C123 72.6736 122.915 72.4929 122.747 72.3504C122.581 72.2078 122.322 72.0983 121.971 72.022L120.669 71.7482C119.936 71.5956 119.394 71.3385 119.043 70.9772C118.692 70.6125 118.518 70.1517 118.521 69.5949C118.518 69.1243 118.646 68.7166 118.905 68.372C119.166 68.0241 119.529 67.7557 119.994 67.5669C120.461 67.3748 121 67.2788 121.609 67.279C122.504 67.2793 123.209 67.47 123.722 67.8513C124.239 68.2326 124.559 68.7481 124.681 69.3978Z" fill="#5C616F"/>
<path d="M315.622 105.887L315.627 87.7047L316.792 87.705L316.787 105.887L315.622 105.887ZM318.715 93.707C318.658 93.1341 318.415 92.6889 317.984 92.3716C317.553 92.0542 316.968 91.8954 316.23 91.8952C315.728 91.8951 315.304 91.966 314.958 92.1079C314.613 92.2452 314.348 92.4368 314.163 92.683C313.983 92.9292 313.893 93.2085 313.893 93.521C313.883 93.7814 313.938 94.0087 314.056 94.2029C314.179 94.397 314.347 94.5652 314.56 94.7073C314.773 94.8446 315.019 94.9654 315.299 95.0697C315.578 95.1692 315.876 95.2545 316.193 95.3256L317.5 95.6385C318.135 95.7807 318.717 95.9702 319.247 96.2071C319.777 96.444 320.237 96.7353 320.625 97.0811C321.013 97.4268 321.313 97.8341 321.526 98.3029C321.744 98.7717 321.855 99.3092 321.86 99.9152C321.855 100.805 321.627 101.577 321.177 102.23C320.732 102.879 320.088 103.383 319.245 103.743C318.407 104.098 317.396 104.275 316.212 104.274C315.038 104.274 314.015 104.094 313.144 103.734C312.278 103.374 311.601 102.841 311.113 102.135C310.631 101.425 310.378 100.547 310.354 99.5001L313.33 99.501C313.363 99.9887 313.503 100.396 313.749 100.723C314 101.045 314.333 101.289 314.75 101.454C315.171 101.616 315.647 101.696 316.177 101.696C316.698 101.696 317.15 101.621 317.534 101.469C317.922 101.318 318.223 101.107 318.436 100.838C318.649 100.568 318.756 100.258 318.756 99.9073C318.756 99.5806 318.659 99.3059 318.465 99.0833C318.276 98.8608 317.996 98.6713 317.627 98.5149C317.263 98.3586 316.815 98.2164 316.285 98.0884L314.701 97.6903C313.475 97.3916 312.507 96.925 311.797 96.2903C311.087 95.6556 310.734 94.8009 310.739 93.7261C310.735 92.8454 310.969 92.0761 311.443 91.4181C311.921 90.76 312.577 90.2465 313.411 89.8774C314.244 89.5083 315.191 89.3239 316.252 89.3242C317.331 89.3245 318.274 89.5094 319.078 89.879C319.888 90.2485 320.518 90.7624 320.967 91.4207C321.417 92.0789 321.649 92.8413 321.663 93.7078L318.715 93.707ZM323.842 104.071L323.843 101.855L329.021 97.0621C329.462 96.6361 329.831 96.2527 330.13 95.9118C330.433 95.571 330.663 95.2373 330.819 94.9106C330.975 94.5792 331.053 94.2218 331.054 93.8382C331.054 93.4121 330.957 93.0451 330.763 92.7373C330.569 92.4248 330.304 92.1856 329.967 92.0198C329.631 91.8492 329.25 91.7639 328.824 91.7638C328.379 91.7636 327.991 91.8535 327.659 92.0333C327.328 92.2132 327.072 92.4711 326.892 92.8073C326.712 93.1434 326.622 93.5435 326.622 94.0075L323.703 94.0067C323.703 93.055 323.919 92.2288 324.35 91.5281C324.781 90.8275 325.385 90.2855 326.161 89.9022C326.938 89.5189 327.833 89.3274 328.846 89.3277C329.888 89.328 330.794 89.5129 331.566 89.8824C332.342 90.2472 332.946 90.754 333.377 91.4028C333.807 92.0516 334.023 92.795 334.022 93.6331C334.022 94.1823 333.913 94.7244 333.695 95.2594C333.482 95.7944 333.101 96.3885 332.551 97.0418C332.002 97.6903 331.227 98.469 330.228 99.3778L328.104 101.458L328.104 101.558L334.212 101.559L334.211 104.073L323.842 104.071ZM341.706 89.3312C342.455 89.3314 343.174 89.4571 343.865 89.7083C344.561 89.9594 345.182 90.3597 345.726 90.9091C346.275 91.4584 346.708 92.1877 347.025 93.0969C347.347 94.0014 347.51 95.1117 347.514 96.428C347.514 97.6638 347.374 98.767 347.094 99.7376C346.819 100.703 346.424 101.525 345.907 102.202C345.391 102.879 344.768 103.395 344.039 103.749C343.31 104.1 342.495 104.275 341.596 104.274C340.625 104.274 339.768 104.087 339.025 103.713C338.282 103.334 337.683 102.82 337.228 102.171C336.779 101.517 336.507 100.783 336.412 99.969L339.445 99.9698C339.563 100.5 339.812 100.912 340.19 101.206C340.569 101.495 341.038 101.639 341.596 101.639C342.543 101.64 343.263 101.228 343.756 100.404C344.249 99.5758 344.497 98.4419 344.503 97.0025L344.403 97.0024C344.185 97.4285 343.892 97.7954 343.522 98.103C343.153 98.406 342.729 98.6402 342.251 98.8058C341.777 98.9714 341.273 99.0541 340.738 99.054C339.881 99.0537 339.116 98.8523 338.444 98.4497C337.772 98.047 337.242 97.4929 336.854 96.7873C336.465 96.0817 336.272 95.2767 336.272 94.3723C336.267 93.397 336.492 92.5282 336.947 91.766C337.402 91.0038 338.037 90.4074 338.851 89.9768C339.67 89.5414 340.622 89.3262 341.706 89.3312ZM341.727 91.746C341.249 91.7459 340.823 91.8594 340.449 92.0866C340.079 92.3137 339.786 92.6191 339.568 93.0025C339.354 93.386 339.25 93.8145 339.255 94.2879C339.255 94.7662 339.359 95.1971 339.567 95.5806C339.78 95.9595 340.069 96.2626 340.433 96.49C340.802 96.7126 341.224 96.824 341.697 96.8241C342.052 96.8242 342.381 96.758 342.685 96.6255C342.988 96.493 343.25 96.3108 343.473 96.0789C343.7 95.8422 343.878 95.57 344.006 95.2623C344.134 94.9545 344.198 94.6279 344.198 94.2822C344.193 93.8229 344.085 93.4015 343.872 93.0179C343.659 92.6343 343.365 92.3265 342.991 92.0944C342.617 91.8623 342.196 91.7461 341.727 91.746ZM352.374 102.09L352.296 102.871C352.234 103.496 352.115 104.119 351.94 104.739C351.769 105.364 351.589 105.93 351.4 106.436C351.215 106.943 351.066 107.34 350.952 107.629L348.992 107.629C349.063 107.349 349.16 106.959 349.283 106.457C349.407 105.96 349.523 105.401 349.632 104.781C349.741 104.161 349.81 103.529 349.838 102.885L349.874 102.089L352.374 102.09ZM359.627 89.535L359.623 104.081L356.548 104.08L356.551 92.4532L356.466 92.4532L353.134 94.5404L353.135 91.8131L356.737 89.5342L359.627 89.535ZM363.08 104.081L363.081 101.866L368.26 97.0729C368.7 96.6469 369.07 96.2635 369.368 95.9227C369.671 95.5819 369.901 95.2481 370.057 94.9215C370.213 94.5901 370.292 94.2326 370.292 93.8491C370.292 93.4229 370.195 93.056 370.001 92.7481C369.807 92.4356 369.542 92.1964 369.206 92.0306C368.87 91.86 368.488 91.7747 368.062 91.7746C367.617 91.7745 367.229 91.8643 366.897 92.0442C366.566 92.224 366.31 92.482 366.13 92.8181C365.95 93.1542 365.86 93.5543 365.86 94.0183L362.941 94.0175C362.941 93.0658 363.157 92.2396 363.588 91.539C364.019 90.8383 364.623 90.2964 365.399 89.9131C366.176 89.5298 367.071 89.3382 368.084 89.3385C369.126 89.3388 370.033 89.5237 370.804 89.8932C371.581 90.258 372.184 90.7648 372.615 91.4136C373.046 92.0624 373.261 92.8059 373.261 93.6439C373.26 94.1932 373.151 94.7353 372.933 95.2703C372.72 95.8052 372.339 96.3994 371.79 97.0526C371.24 97.7011 370.466 98.4798 369.466 99.3886L367.342 101.469L367.342 101.568L373.45 101.57L373.45 104.084L363.08 104.081ZM381.104 104.285C380.01 104.285 379.037 104.107 378.185 103.752C377.338 103.392 376.672 102.901 376.19 102.281C375.707 101.661 375.466 100.958 375.466 100.172C375.466 99.5655 375.603 99.0092 375.878 98.5026C376.158 97.9913 376.537 97.5677 377.015 97.2316C377.493 96.8908 378.028 96.6732 378.62 96.5786L378.62 96.4792C377.844 96.3227 377.214 95.9462 376.731 95.3494C376.249 94.748 376.007 94.0495 376.008 93.2541C376.008 92.5012 376.228 91.8313 376.669 91.2443C377.109 90.6526 377.713 90.1887 378.48 89.8528C379.252 89.5121 380.128 89.3418 381.108 89.3421C382.088 89.3424 382.962 89.5131 383.729 89.8542C384.5 90.1953 385.106 90.6619 385.546 91.2539C385.987 91.8411 386.209 92.5088 386.214 93.2569C386.209 94.0571 385.962 94.7554 385.474 95.3518C384.986 95.9483 384.361 96.3245 383.599 96.4806L383.599 96.58C384.181 96.6749 384.709 96.8928 385.183 97.2339C385.661 97.5702 386.039 97.994 386.319 98.5055C386.603 99.0122 386.747 99.5686 386.751 100.175C386.746 100.961 386.502 101.664 386.019 102.284C385.536 102.904 384.868 103.394 384.016 103.753C383.168 104.108 382.198 104.286 381.104 104.285ZM381.105 102.027C381.592 102.027 382.018 101.939 382.383 101.764C382.748 101.585 383.032 101.338 383.236 101.026C383.444 100.709 383.548 100.344 383.548 99.9323C383.548 99.5109 383.442 99.1392 383.229 98.8171C383.016 98.4904 382.727 98.2346 382.363 98.0498C381.998 97.8604 381.579 97.7655 381.106 97.7654C380.637 97.7653 380.218 97.8599 379.849 98.0492C379.479 98.2337 379.188 98.4893 378.975 98.816C378.766 99.1379 378.662 99.5095 378.662 99.9309C378.662 100.343 378.764 100.707 378.967 101.025C379.171 101.337 379.457 101.584 379.826 101.764C380.195 101.939 380.622 102.027 381.105 102.027ZM381.106 95.5282C381.514 95.5283 381.876 95.4455 382.193 95.2799C382.51 95.1143 382.759 94.8847 382.939 94.5912C383.119 94.2977 383.209 93.9592 383.209 93.5756C383.209 93.1969 383.119 92.8654 382.94 92.5813C382.76 92.2924 382.514 92.0674 382.201 91.9063C381.889 91.7405 381.524 91.6576 381.107 91.6575C380.695 91.6573 380.331 91.7401 380.014 91.9057C379.696 92.0666 379.448 92.2915 379.268 92.5802C379.092 92.8643 379.005 93.1957 379.005 93.5745C379.005 93.958 379.094 94.2966 379.274 94.5902C379.454 94.8838 379.703 95.1135 380.02 95.2793C380.337 95.4451 380.699 95.5281 381.106 95.5282Z" fill="white"/>
<path d="M370.026 125.447L370.026 126.441L365.909 126.44L365.909 125.446L370.026 125.447ZM367.14 133.083L367.143 124.392C367.143 123.955 367.246 123.59 367.451 123.299C367.657 123.007 367.924 122.788 368.252 122.643C368.58 122.497 368.926 122.424 369.291 122.424C369.579 122.424 369.815 122.447 369.997 122.494C370.179 122.54 370.315 122.583 370.404 122.623L370.066 123.637C370.006 123.617 369.924 123.593 369.818 123.563C369.715 123.533 369.579 123.518 369.41 123.518C369.022 123.518 368.742 123.615 368.57 123.811C368.401 124.006 368.316 124.293 368.316 124.671L368.313 133.083L367.14 133.083ZM371.168 133.084L371.17 125.447L372.304 125.448L372.303 126.601L372.383 126.601C372.522 126.223 372.774 125.917 373.139 125.682C373.504 125.446 373.915 125.329 374.372 125.329C374.458 125.329 374.566 125.331 374.695 125.334C374.824 125.337 374.922 125.342 374.988 125.349L374.988 126.542C374.948 126.532 374.857 126.517 374.715 126.497C374.575 126.474 374.428 126.462 374.272 126.462C373.901 126.462 373.57 126.54 373.278 126.696C372.989 126.848 372.761 127.06 372.592 127.332C372.426 127.6 372.343 127.907 372.343 128.252L372.341 133.084L371.168 133.084ZM378.747 133.245C378.057 133.245 377.453 133.08 376.932 132.752C376.415 132.424 376.011 131.965 375.72 131.375C375.431 130.785 375.288 130.095 375.288 129.306C375.288 128.511 375.432 127.817 375.721 127.223C376.013 126.63 376.417 126.17 376.934 125.842C377.455 125.514 378.06 125.35 378.749 125.35C379.438 125.35 380.042 125.514 380.559 125.843C381.079 126.171 381.483 126.632 381.771 127.225C382.063 127.818 382.208 128.513 382.208 129.308C382.208 130.097 382.062 130.787 381.77 131.376C381.482 131.966 381.077 132.425 380.557 132.753C380.04 133.081 379.436 133.245 378.747 133.245ZM378.747 132.191C379.271 132.191 379.702 132.057 380.04 131.789C380.378 131.52 380.628 131.167 380.791 130.73C380.953 130.292 381.035 129.818 381.035 129.308C381.035 128.798 380.954 128.322 380.792 127.881C380.629 127.44 380.379 127.084 380.041 126.812C379.703 126.54 379.272 126.404 378.749 126.404C378.225 126.404 377.794 126.54 377.456 126.811C377.118 127.083 376.868 127.439 376.705 127.88C376.542 128.321 376.461 128.796 376.461 129.307C376.461 129.817 376.542 130.291 376.704 130.729C376.867 131.166 377.117 131.519 377.455 131.788C377.793 132.056 378.223 132.191 378.747 132.191ZM383.498 133.087L383.5 125.451L384.634 125.451L384.633 126.644L384.733 126.644C384.892 126.237 385.149 125.92 385.504 125.695C385.858 125.466 386.284 125.352 386.782 125.352C387.285 125.352 387.705 125.467 388.039 125.696C388.377 125.921 388.641 126.238 388.829 126.645L388.909 126.645C389.105 126.251 389.398 125.938 389.789 125.706C390.18 125.471 390.649 125.353 391.196 125.353C391.879 125.354 392.437 125.568 392.872 125.995C393.306 126.42 393.523 127.081 393.522 127.979L393.521 133.09L392.348 133.09L392.349 127.979C392.349 127.415 392.195 127.013 391.887 126.771C391.579 126.528 391.216 126.407 390.798 126.407C390.261 126.407 389.845 126.569 389.55 126.894C389.255 127.216 389.108 127.623 389.107 128.117L389.106 133.089L387.913 133.088L387.914 127.858C387.914 127.424 387.774 127.074 387.492 126.809C387.21 126.541 386.848 126.406 386.403 126.406C386.098 126.406 385.813 126.487 385.548 126.649C385.286 126.812 385.074 127.037 384.912 127.325C384.753 127.61 384.673 127.94 384.673 128.315L384.671 133.087L383.498 133.087ZM399.78 122.91L399.777 133.092L398.604 133.091L398.606 122.909L399.78 122.91ZM403.673 133.272C403.189 133.272 402.75 133.18 402.356 132.998C401.961 132.812 401.648 132.545 401.416 132.197C401.184 131.846 401.068 131.422 401.069 130.924C401.069 130.487 401.155 130.132 401.327 129.86C401.5 129.585 401.73 129.37 402.019 129.214C402.307 129.059 402.625 128.943 402.973 128.867C403.325 128.787 403.678 128.724 404.032 128.678C404.496 128.618 404.872 128.574 405.161 128.544C405.452 128.511 405.665 128.456 405.797 128.38C405.933 128.304 406.001 128.171 406.001 127.983L406.001 127.943C406.001 127.452 405.867 127.071 405.599 126.799C405.334 126.527 404.931 126.391 404.391 126.391C403.831 126.391 403.391 126.514 403.073 126.759C402.755 127.004 402.531 127.266 402.402 127.544L401.288 127.146C401.487 126.682 401.753 126.321 402.084 126.062C402.419 125.801 402.784 125.618 403.178 125.516C403.576 125.41 403.967 125.357 404.351 125.357C404.597 125.357 404.878 125.387 405.196 125.447C405.518 125.503 405.828 125.621 406.126 125.8C406.428 125.979 406.678 126.249 406.877 126.611C407.075 126.972 407.175 127.456 407.174 128.062L407.173 133.094L406 133.093L406 132.059L405.94 132.059C405.861 132.225 405.728 132.402 405.543 132.591C405.357 132.78 405.11 132.941 404.802 133.073C404.493 133.206 404.117 133.272 403.673 133.272ZM403.852 132.218C404.316 132.218 404.707 132.127 405.026 131.945C405.347 131.762 405.589 131.527 405.752 131.239C405.917 130.951 406 130.647 406.001 130.329L406.001 129.255C405.951 129.315 405.842 129.37 405.673 129.419C405.507 129.466 405.315 129.507 405.096 129.543C404.88 129.576 404.67 129.606 404.464 129.633C404.262 129.656 404.098 129.676 403.972 129.692C403.667 129.732 403.382 129.796 403.117 129.886C402.855 129.972 402.643 130.103 402.481 130.278C402.322 130.451 402.242 130.686 402.242 130.984C402.242 131.392 402.392 131.7 402.694 131.909C402.999 132.115 403.385 132.218 403.852 132.218ZM414.225 127.169L413.171 127.467C413.105 127.292 413.007 127.121 412.878 126.955C412.752 126.786 412.58 126.647 412.361 126.538C412.142 126.428 411.862 126.373 411.521 126.373C411.054 126.373 410.664 126.481 410.353 126.696C410.044 126.908 409.89 127.178 409.89 127.506C409.89 127.798 409.996 128.028 410.208 128.197C410.42 128.367 410.751 128.508 411.202 128.62L412.336 128.899C413.018 129.065 413.527 129.319 413.862 129.66C414.196 129.998 414.364 130.434 414.363 130.968C414.363 131.405 414.237 131.796 413.985 132.141C413.737 132.486 413.389 132.757 412.941 132.956C412.494 133.155 411.973 133.254 411.38 133.254C410.601 133.254 409.956 133.084 409.446 132.746C408.936 132.408 408.613 131.914 408.477 131.264L409.591 130.986C409.697 131.397 409.897 131.706 410.192 131.911C410.49 132.117 410.88 132.22 411.36 132.22C411.907 132.22 412.341 132.104 412.663 131.872C412.988 131.637 413.15 131.355 413.15 131.027C413.15 130.762 413.058 130.54 412.872 130.361C412.687 130.178 412.402 130.043 412.017 129.953L410.744 129.654C410.045 129.488 409.532 129.231 409.204 128.883C408.879 128.532 408.717 128.093 408.717 127.566C408.717 127.135 408.838 126.754 409.08 126.422C409.325 126.091 409.658 125.831 410.079 125.642C410.504 125.453 410.984 125.359 411.521 125.359C412.277 125.359 412.87 125.525 413.301 125.857C413.735 126.188 414.043 126.626 414.225 127.169ZM418.952 125.461L418.952 126.455L414.994 126.454L414.995 125.459L418.952 125.461ZM416.149 123.63L417.322 123.631L417.32 130.909C417.32 131.24 417.368 131.489 417.464 131.655C417.563 131.817 417.689 131.927 417.842 131.983C417.997 132.036 418.161 132.063 418.334 132.063C418.463 132.063 418.569 132.056 418.652 132.043C418.735 132.026 418.801 132.013 418.851 132.003L419.089 133.057C419.01 133.087 418.899 133.117 418.756 133.147C418.614 133.18 418.433 133.196 418.214 133.196C417.883 133.196 417.558 133.125 417.24 132.982C416.925 132.839 416.663 132.622 416.455 132.331C416.249 132.039 416.146 131.671 416.147 131.227L416.149 123.63ZM424.407 135.962C424.208 135.962 424.031 135.945 423.875 135.912C423.72 135.882 423.612 135.852 423.552 135.823L423.851 134.789C424.136 134.862 424.388 134.888 424.607 134.868C424.825 134.849 425.019 134.751 425.188 134.575C425.361 134.403 425.518 134.123 425.661 133.735L425.88 133.139L423.058 125.462L424.331 125.462L426.437 131.548L426.517 131.548L428.626 125.463L429.899 125.464L426.655 134.213C426.509 134.607 426.328 134.933 426.113 135.192C425.897 135.454 425.647 135.648 425.362 135.773C425.08 135.899 424.762 135.962 424.407 135.962ZM433.874 133.26C433.138 133.26 432.503 133.097 431.97 132.772C431.439 132.444 431.03 131.987 430.742 131.4C430.457 130.81 430.315 130.124 430.315 129.342C430.315 128.559 430.458 127.87 430.743 127.273C431.032 126.674 431.433 126.206 431.947 125.872C432.464 125.534 433.067 125.365 433.757 125.365C434.154 125.365 434.547 125.432 434.935 125.564C435.322 125.697 435.675 125.913 435.993 126.211C436.312 126.506 436.565 126.897 436.754 127.384C436.943 127.872 437.037 128.472 437.037 129.184L437.037 129.681L431.15 129.68L431.15 128.666L435.844 128.667C435.844 128.236 435.758 127.852 435.585 127.513C435.417 127.175 435.175 126.908 434.86 126.713C434.548 126.517 434.18 126.419 433.756 126.419C433.289 126.419 432.884 126.535 432.543 126.767C432.205 126.995 431.945 127.294 431.762 127.662C431.58 128.029 431.489 128.424 431.488 128.845L431.488 129.521C431.488 130.098 431.587 130.586 431.786 130.988C431.988 131.385 432.268 131.689 432.626 131.898C432.984 132.103 433.4 132.206 433.874 132.206C434.182 132.206 434.461 132.163 434.709 132.077C434.961 131.988 435.178 131.855 435.361 131.68C435.543 131.501 435.684 131.279 435.783 131.013L436.917 131.332C436.797 131.716 436.597 132.054 436.315 132.346C436.033 132.634 435.685 132.86 435.271 133.022C434.856 133.181 434.391 133.26 433.874 133.26ZM440.568 133.282C440.084 133.282 439.644 133.19 439.25 133.008C438.856 132.822 438.543 132.555 438.311 132.207C438.079 131.856 437.963 131.432 437.963 130.935C437.963 130.497 438.049 130.142 438.222 129.871C438.394 129.596 438.625 129.38 438.913 129.225C439.202 129.069 439.52 128.953 439.868 128.877C440.219 128.797 440.572 128.734 440.927 128.688C441.391 128.629 441.767 128.584 442.055 128.554C442.347 128.521 442.559 128.467 442.692 128.39C442.828 128.314 442.896 128.182 442.896 127.993L442.896 127.953C442.896 127.462 442.762 127.081 442.493 126.809C442.228 126.538 441.826 126.402 441.285 126.401C440.725 126.401 440.286 126.524 439.968 126.769C439.65 127.014 439.426 127.276 439.296 127.554L438.183 127.156C438.382 126.692 438.647 126.331 438.979 126.073C439.313 125.811 439.678 125.629 440.073 125.526C440.47 125.42 440.861 125.367 441.246 125.367C441.491 125.367 441.773 125.397 442.091 125.457C442.412 125.513 442.722 125.631 443.021 125.81C443.322 125.989 443.572 126.259 443.771 126.621C443.97 126.982 444.069 127.466 444.069 128.073L444.068 133.104L442.894 133.104L442.895 132.069L442.835 132.069C442.755 132.235 442.623 132.412 442.437 132.601C442.251 132.79 442.004 132.951 441.696 133.083C441.388 133.216 441.012 133.282 440.568 133.282ZM440.747 132.228C441.211 132.228 441.602 132.137 441.92 131.955C442.242 131.773 442.484 131.537 442.646 131.249C442.812 130.961 442.895 130.657 442.895 130.339L442.895 129.265C442.846 129.325 442.736 129.38 442.567 129.429C442.401 129.476 442.209 129.517 441.99 129.554C441.775 129.587 441.565 129.616 441.359 129.643C441.157 129.666 440.993 129.686 440.867 129.702C440.562 129.742 440.277 129.807 440.012 129.896C439.75 129.982 439.538 130.113 439.375 130.289C439.216 130.461 439.136 130.696 439.136 130.995C439.136 131.402 439.287 131.71 439.589 131.919C439.893 132.125 440.279 132.228 440.747 132.228ZM445.709 133.104L445.711 125.468L446.845 125.468L446.844 126.622L446.924 126.622C447.063 126.244 447.315 125.937 447.68 125.702C448.045 125.467 448.456 125.349 448.913 125.349C448.999 125.35 449.107 125.351 449.236 125.355C449.365 125.358 449.463 125.363 449.529 125.37L449.529 126.563C449.489 126.553 449.398 126.538 449.256 126.518C449.116 126.495 448.969 126.483 448.813 126.483C448.442 126.483 448.111 126.561 447.819 126.716C447.53 126.869 447.302 127.081 447.133 127.353C446.967 127.621 446.884 127.928 446.884 128.272L446.882 133.105L445.709 133.104Z" fill="#5C616E"/>
<path d="M331.946 122.891L331.943 133.073L330.098 133.072L330.101 124.685L330.041 124.685L327.659 126.206L327.66 124.515L330.191 122.89L331.946 122.891ZM335.096 133.183C334.794 133.183 334.536 133.077 334.321 132.864C334.105 132.652 333.999 132.394 334.003 132.089C333.999 131.79 334.106 131.535 334.321 131.323C334.537 131.111 334.795 131.005 335.097 131.005C335.388 131.005 335.642 131.111 335.857 131.324C336.076 131.536 336.187 131.791 336.19 132.089C336.187 132.292 336.134 132.475 336.031 132.641C335.931 132.807 335.799 132.939 335.633 133.039C335.471 133.135 335.292 133.183 335.096 133.183ZM338.028 133.074L338.028 131.742L341.564 128.278C341.902 127.936 342.184 127.633 342.41 127.368C342.635 127.103 342.804 126.846 342.917 126.598C343.03 126.349 343.086 126.084 343.086 125.802C343.086 125.481 343.013 125.206 342.868 124.977C342.722 124.745 342.521 124.566 342.266 124.44C342.011 124.314 341.721 124.251 341.396 124.251C341.062 124.25 340.768 124.32 340.516 124.459C340.264 124.595 340.069 124.789 339.929 125.041C339.794 125.292 339.726 125.592 339.725 125.94L337.97 125.94C337.971 125.294 338.118 124.732 338.413 124.255C338.708 123.778 339.115 123.408 339.632 123.146C340.152 122.885 340.749 122.754 341.422 122.754C342.104 122.754 342.704 122.882 343.221 123.137C343.738 123.393 344.139 123.743 344.424 124.187C344.712 124.631 344.856 125.138 344.856 125.708C344.856 126.089 344.783 126.464 344.637 126.832C344.491 127.2 344.234 127.607 343.866 128.055C343.501 128.502 342.989 129.044 342.329 129.68L340.574 131.464L340.574 131.534L345.009 131.535L345.008 133.076L338.028 133.074ZM352.168 131.169L352.168 130.632C352.168 130.238 352.251 129.875 352.417 129.543C352.586 129.212 352.831 128.945 353.153 128.743C353.474 128.541 353.864 128.44 354.321 128.44C354.792 128.44 355.186 128.542 355.504 128.744C355.823 128.943 356.063 129.208 356.225 129.539C356.391 129.871 356.474 130.236 356.473 130.633L356.473 131.17C356.473 131.565 356.39 131.928 356.224 132.259C356.059 132.59 355.815 132.857 355.493 133.059C355.175 133.261 354.784 133.362 354.32 133.362C353.856 133.362 353.463 133.261 353.142 133.058C352.82 132.856 352.577 132.589 352.411 132.258C352.249 131.926 352.168 131.563 352.168 131.169ZM353.466 130.632L353.465 131.169C353.465 131.431 353.528 131.672 353.654 131.89C353.78 132.109 354.002 132.219 354.32 132.219C354.642 132.219 354.862 132.111 354.982 131.896C355.104 131.677 355.166 131.435 355.166 131.17L355.166 130.633C355.166 130.368 355.108 130.126 354.992 129.907C354.876 129.685 354.652 129.574 354.321 129.574C354.009 129.574 353.789 129.685 353.66 129.907C353.53 130.125 353.466 130.367 353.466 130.632ZM346.994 125.341L346.994 124.804C346.994 124.406 347.079 124.042 347.248 123.71C347.417 123.379 347.663 123.114 347.984 122.915C348.306 122.713 348.695 122.612 349.152 122.612C349.62 122.612 350.013 122.713 350.331 122.916C350.652 123.115 350.894 123.38 351.056 123.711C351.219 124.043 351.3 124.407 351.3 124.805L351.299 125.342C351.299 125.74 351.216 126.104 351.051 126.436C350.888 126.764 350.646 127.027 350.324 127.226C350.003 127.425 349.612 127.524 349.151 127.524C348.684 127.524 348.289 127.424 347.968 127.225C347.65 127.026 347.408 126.761 347.242 126.43C347.077 126.098 346.994 125.735 346.994 125.341ZM348.302 124.804L348.302 125.341C348.301 125.606 348.363 125.848 348.485 126.067C348.611 126.283 348.833 126.39 349.151 126.39C349.47 126.391 349.688 126.283 349.808 126.068C349.93 125.849 349.992 125.607 349.992 125.342L349.992 124.805C349.992 124.54 349.934 124.298 349.818 124.079C349.702 123.857 349.48 123.746 349.152 123.746C348.837 123.746 348.617 123.856 348.491 124.079C348.365 124.301 348.302 124.542 348.302 124.804ZM347.559 133.077L354.561 122.897L355.804 122.897L348.802 133.077L347.559 133.077Z" fill="#E35454"/>
<g clip-path="url(#clip1_256_1112)">
<path d="M311.795 128.789L315.516 132.568L319.295 128.847" stroke="#E35454" stroke-width="2" stroke-linecap="round" stroke-linejoin="round"/>
<path d="M315.585 123.568L315.516 132.568" stroke="#E35454" stroke-width="2" stroke-linecap="round"/>
</g>
<path d="M310.572 64.8851L312.829 64.8858L315.85 72.2644L315.969 72.2645L318.994 64.8875L321.251 64.8881L321.248 75.0699L319.479 75.0694L319.48 68.0744L319.386 68.0744L316.57 75.0388L315.248 75.0384L312.436 68.0575L312.341 68.0575L312.339 75.0674L310.569 75.067L310.572 64.8851ZM325.375 75.2252C324.891 75.225 324.455 75.1387 324.067 74.9663C323.683 74.7905 323.378 74.5319 323.153 74.1905C322.931 73.849 322.82 73.4281 322.82 72.9276C322.82 72.4967 322.9 72.1404 323.059 71.8588C323.218 71.5771 323.435 71.3518 323.71 71.1828C323.986 71.0138 324.296 70.8863 324.64 70.8002C324.988 70.7109 325.348 70.6463 325.719 70.6067C326.167 70.5604 326.53 70.519 326.808 70.4827C327.086 70.443 327.289 70.3834 327.415 70.3039C327.544 70.221 327.608 70.0934 327.609 69.9211L327.609 69.8913C327.609 69.5167 327.498 69.2267 327.276 69.0211C327.054 68.8156 326.734 68.7128 326.316 68.7126C325.875 68.7125 325.526 68.8085 325.267 69.0007C325.012 69.1929 324.839 69.4199 324.75 69.6817L323.07 69.4426C323.202 68.9786 323.421 68.5909 323.726 68.2794C324.031 67.9646 324.404 67.7294 324.845 67.5737C325.286 67.4148 325.773 67.3354 326.307 67.3355C326.675 67.3356 327.041 67.3788 327.405 67.4651C327.77 67.5513 328.103 67.694 328.405 67.8929C328.706 68.0885 328.948 68.3554 329.13 68.6935C329.316 69.0316 329.408 69.4543 329.408 69.9614L329.407 75.0722L327.677 75.0717L327.677 74.0227L327.617 74.0227C327.508 74.2347 327.354 74.4336 327.155 74.6191C326.959 74.8014 326.712 74.9488 326.414 75.0614C326.119 75.1707 325.773 75.2253 325.375 75.2252ZM325.843 73.9028C326.204 73.9029 326.517 73.8318 326.782 73.6893C327.047 73.5436 327.251 73.3514 327.394 73.1128C327.54 72.8742 327.613 72.614 327.613 72.3323L327.613 71.4325C327.557 71.4788 327.461 71.5219 327.325 71.5616C327.192 71.6014 327.043 71.6361 326.877 71.6659C326.711 71.6957 326.547 71.7222 326.385 71.7453C326.223 71.7685 326.082 71.7883 325.962 71.8049C325.694 71.8413 325.454 71.9008 325.241 71.9836C325.029 72.0665 324.862 72.1824 324.739 72.3315C324.617 72.4773 324.555 72.6662 324.555 72.8982C324.555 73.2297 324.676 73.4799 324.918 73.649C325.16 73.8181 325.468 73.9027 325.843 73.9028ZM331.216 75.0727L331.219 67.4363L332.964 67.4368L332.963 68.7095L333.043 68.7095C333.182 68.2687 333.421 67.9291 333.759 67.6905C334.1 67.4487 334.49 67.3278 334.927 67.3279C335.027 67.328 335.138 67.333 335.261 67.3429C335.386 67.3496 335.491 67.3612 335.574 67.3778L335.573 69.0334C335.497 69.0068 335.376 68.9836 335.21 68.9637C335.048 68.9404 334.891 68.9288 334.738 68.9287C334.41 68.9287 334.115 68.9998 333.853 69.1423C333.594 69.2814 333.391 69.4752 333.241 69.7238C333.092 69.9723 333.018 70.259 333.017 70.5838L333.016 75.0732L331.216 75.0727ZM338.409 72.6783L338.404 70.5057L338.693 70.5058L341.438 67.4391L343.541 67.4397L340.164 71.1973L339.791 71.1972L338.409 72.6783ZM336.767 75.0742L336.77 64.8924L338.57 64.8929L338.567 75.0747L336.767 75.0742ZM341.56 75.0755L339.075 71.5997L340.288 70.3323L343.713 75.0761L341.56 75.0755ZM347.804 75.2264C347.039 75.2262 346.377 75.0669 345.821 74.7486C345.267 74.4269 344.841 73.9727 344.543 73.386C344.245 72.796 344.096 72.1015 344.096 71.3028C344.097 70.5173 344.246 69.8279 344.544 69.2347C344.846 68.6382 345.267 68.1743 345.808 67.843C346.348 67.5084 346.983 67.3412 347.712 67.3414C348.183 67.3415 348.627 67.4179 349.044 67.5705C349.465 67.7197 349.836 67.9519 350.158 68.2668C350.482 68.5818 350.737 68.9829 350.923 69.4701C351.108 69.9541 351.201 70.5308 351.201 71.2003L351.201 71.7522L344.941 71.7505L344.942 70.5374L349.476 70.5386C349.473 70.1939 349.398 69.8873 349.252 69.6188C349.107 69.347 348.903 69.1332 348.641 68.9773C348.383 68.8215 348.081 68.7435 347.736 68.7434C347.368 68.7433 347.045 68.8327 346.767 69.0116C346.488 69.1872 346.271 69.4191 346.115 69.7075C345.963 69.9924 345.885 70.3056 345.881 70.647L345.881 71.706C345.881 72.1501 345.962 72.5313 346.124 72.8495C346.287 73.1644 346.514 73.4064 346.805 73.5755C347.097 73.7413 347.438 73.8243 347.829 73.8244C348.091 73.8245 348.328 73.7881 348.54 73.7152C348.752 73.6391 348.936 73.5281 349.092 73.3823C349.248 73.2365 349.366 73.0559 349.445 72.8405L351.126 73.0299C351.02 73.474 350.817 73.8617 350.519 74.193C350.224 74.5211 349.846 74.7762 349.385 74.9584C348.924 75.1372 348.397 75.2265 347.804 75.2264ZM356.538 67.4433L356.537 68.8353L352.147 68.8341L352.148 67.4421L356.538 67.4433ZM353.232 65.6128L355.032 65.6133L355.03 72.7824C355.03 73.0243 355.066 73.2099 355.139 73.3392C355.215 73.4652 355.315 73.5514 355.437 73.5978C355.56 73.6442 355.696 73.6675 355.845 73.6675C355.958 73.6676 356.06 73.6593 356.153 73.6428C356.249 73.6262 356.322 73.6113 356.372 73.5981L356.675 75.0051C356.579 75.0382 356.441 75.0746 356.262 75.1144C356.086 75.1541 355.871 75.1772 355.616 75.1838C355.165 75.1969 354.759 75.1289 354.398 74.9796C354.037 74.8271 353.75 74.5917 353.538 74.2734C353.329 73.9552 353.227 73.5574 353.23 73.0802L353.232 65.6128ZM358.041 75.0801L358.043 67.4437L359.843 67.4442L359.84 75.0806L358.041 75.0801ZM358.948 66.3601C358.663 66.3601 358.418 66.2655 358.212 66.0766C358.007 65.8843 357.904 65.6539 357.904 65.3854C357.904 65.1136 358.007 64.8833 358.213 64.6945C358.418 64.5023 358.663 64.4062 358.948 64.4063C359.237 64.4064 359.482 64.5026 359.684 64.6949C359.89 64.8838 359.992 65.1142 359.992 65.386C359.992 65.6545 359.889 65.8848 359.684 66.077C359.482 66.2658 359.236 66.3602 358.948 66.3601ZM363.492 70.6071L363.491 75.0816L361.691 75.0811L361.693 67.4447L363.413 67.4452L363.413 68.7428L363.502 68.7428C363.678 68.3153 363.958 67.9756 364.343 67.7238C364.731 67.4721 365.21 67.3462 365.78 67.3464C366.307 67.3465 366.766 67.4594 367.157 67.6849C367.551 67.9103 367.856 68.2369 368.071 68.6645C368.29 69.0921 368.398 69.6109 368.394 70.2207L368.393 75.0829L366.593 75.0824L366.594 70.4986C366.594 69.9882 366.462 69.5888 366.197 69.3004C365.935 69.0119 365.572 68.8677 365.108 68.8675C364.793 68.8674 364.513 68.937 364.268 69.0761C364.026 69.2119 363.835 69.4091 363.696 69.6676C363.56 69.926 363.492 70.2392 363.492 70.6071ZM373.543 78.1071C372.896 78.1069 372.341 78.0189 371.877 77.8431C371.413 77.6706 371.04 77.4385 370.759 77.1468C370.477 76.855 370.282 76.5318 370.172 76.1772L371.793 75.7849C371.866 75.934 371.972 76.0815 372.111 76.2274C372.25 76.3766 372.438 76.4993 372.673 76.5955C372.912 76.695 373.211 76.7448 373.573 76.7449C374.083 76.745 374.506 76.6208 374.841 76.3723C375.175 76.1272 375.343 75.7229 375.343 75.1594L375.343 73.7127L375.254 73.7127C375.161 73.8982 375.025 74.0888 374.846 74.2843C374.67 74.4798 374.437 74.6438 374.145 74.7763C373.857 74.9088 373.494 74.975 373.056 74.9748C372.47 74.9747 371.938 74.837 371.46 74.5618C370.987 74.2832 370.609 73.8688 370.327 73.3185C370.049 72.765 369.91 72.0722 369.91 71.2403C369.91 70.4018 370.05 69.6942 370.328 69.1175C370.61 68.5376 370.99 68.0986 371.467 67.8004C371.945 67.4989 372.477 67.3483 373.063 67.3484C373.511 67.3485 373.879 67.4249 374.167 67.5774C374.458 67.7266 374.69 67.9073 374.863 68.1195C375.035 68.3284 375.166 68.5256 375.255 68.7112L375.355 68.7113L375.355 67.4485L377.13 67.449L377.128 75.2096C377.128 75.8626 376.972 76.4028 376.66 76.8302C376.348 77.2577 375.922 77.5774 375.382 77.7894C374.842 78.0014 374.229 78.1073 373.543 78.1071ZM373.559 73.563C373.94 73.5631 374.265 73.4704 374.533 73.2849C374.802 73.0994 375.006 72.8326 375.145 72.4846C375.284 72.1367 375.354 71.7191 375.354 71.2319C375.354 70.7513 375.285 70.3303 375.146 69.969C375.01 69.6077 374.808 69.3276 374.539 69.1287C374.274 68.9264 373.948 68.8252 373.56 68.8251C373.159 68.825 372.824 68.9293 372.556 69.138C372.287 69.3468 372.085 69.6334 371.949 69.998C371.813 70.3592 371.745 70.7702 371.745 71.2309C371.745 71.6982 371.812 72.1075 371.948 72.4589C372.087 72.807 372.291 73.0788 372.559 73.2744C372.831 73.4667 373.164 73.5629 373.559 73.563Z" fill="#5C616F"/>
</g>
<defs>
<filter id="filter0_d_256_1112" x="-0.00195312" y="-0.00219727" width="579.033" height="279.116" filterUnits="userSpaceOnUse" color-interpolation-filters="sRGB">
<feFlood flood-opacity="0" result="BackgroundImageFix"/>
<feColorMatrix in="SourceAlpha" type="matrix" values="0 0 0 0 0 0 0 0 0 0 0 0 0 0 0 0 0 0 127 0" result="hardAlpha"/>
<feOffset dx="20" dy="40"/>
<feGaussianBlur stdDeviation="40"/>
<feComposite in2="hardAlpha" operator="out"/>
<feColorMatrix type="matrix" values="0 0 0 0 0.178125 0 0 0 0 0.200292 0 0 0 0 0.316667 0 0 0 0.12 0"/>
<feBlend mode="multiply" in2="BackgroundImageFix" result="effect1_dropShadow_256_1112"/>
<feBlend mode="normal" in="SourceGraphic" in2="effect1_dropShadow_256_1112" result="shape"/>
</filter>
<clipPath id="clip0_256_1112">
<rect width="12" height="12" fill="white" transform="translate(88.5083 122.005) rotate(0.0158183)"/>
</clipPath>
<clipPath id="clip1_256_1112">
<rect width="12" height="12" fill="white" transform="matrix(0.999971 0.0076744 0.0076744 -0.999971 309.505 134.022)"/>
</clipPath>
</defs>
</svg>
